G04 EAGLE Gerber RS-274X export*
G75*
%MOMM*%
%FSLAX34Y34*%
%LPD*%
%INSoldermask Top*%
%IPPOS*%
%AMOC8*
5,1,8,0,0,1.08239X$1,22.5*%
G01*
%ADD10C,3.203200*%
%ADD11C,2.203200*%
%ADD12R,0.508000X1.193800*%
%ADD13R,1.403200X1.503200*%
%ADD14R,1.503200X1.703200*%
%ADD15R,0.503200X1.103200*%
%ADD16C,0.863200*%
%ADD17C,0.853200*%
%ADD18R,1.103200X0.503200*%
%ADD19R,3.803200X1.803200*%

G36*
X100852Y9840D02*
X100852Y9840D01*
X100895Y9852D01*
X100961Y9859D01*
X102644Y10310D01*
X102685Y10329D01*
X102748Y10348D01*
X104328Y11085D01*
X104365Y11111D01*
X104424Y11140D01*
X105852Y12140D01*
X105883Y12172D01*
X105936Y12211D01*
X107169Y13444D01*
X107194Y13480D01*
X107240Y13528D01*
X108240Y14956D01*
X108258Y14997D01*
X108295Y15052D01*
X109032Y16632D01*
X109043Y16675D01*
X109070Y16736D01*
X109521Y18419D01*
X109523Y18451D01*
X109530Y18472D01*
X109530Y18487D01*
X109540Y18528D01*
X109692Y20265D01*
X109688Y20309D01*
X109692Y20375D01*
X109540Y22112D01*
X109528Y22155D01*
X109521Y22221D01*
X109070Y23904D01*
X109051Y23945D01*
X109032Y24008D01*
X108295Y25588D01*
X108269Y25625D01*
X108240Y25684D01*
X107240Y27112D01*
X107208Y27143D01*
X107169Y27196D01*
X105936Y28429D01*
X105900Y28454D01*
X105852Y28500D01*
X104424Y29500D01*
X104383Y29518D01*
X104328Y29555D01*
X102748Y30292D01*
X102705Y30303D01*
X102644Y30330D01*
X100961Y30781D01*
X100916Y30784D01*
X100852Y30800D01*
X99115Y30952D01*
X99071Y30948D01*
X99005Y30952D01*
X97268Y30800D01*
X97225Y30788D01*
X97159Y30781D01*
X95476Y30330D01*
X95435Y30311D01*
X95372Y30292D01*
X93792Y29555D01*
X93755Y29529D01*
X93696Y29500D01*
X92268Y28500D01*
X92237Y28468D01*
X92184Y28429D01*
X90951Y27196D01*
X90926Y27160D01*
X90880Y27112D01*
X89880Y25684D01*
X89862Y25643D01*
X89825Y25588D01*
X89088Y24008D01*
X89077Y23965D01*
X89050Y23904D01*
X88599Y22221D01*
X88596Y22176D01*
X88580Y22112D01*
X88428Y20375D01*
X88432Y20331D01*
X88428Y20265D01*
X88580Y18528D01*
X88592Y18485D01*
X88596Y18451D01*
X88596Y18435D01*
X88598Y18430D01*
X88599Y18419D01*
X89050Y16736D01*
X89069Y16695D01*
X89088Y16632D01*
X89825Y15052D01*
X89851Y15015D01*
X89880Y14956D01*
X90880Y13528D01*
X90912Y13497D01*
X90951Y13444D01*
X92184Y12211D01*
X92220Y12186D01*
X92268Y12140D01*
X93696Y11140D01*
X93737Y11122D01*
X93792Y11085D01*
X95372Y10348D01*
X95415Y10337D01*
X95476Y10310D01*
X97159Y9859D01*
X97204Y9856D01*
X97268Y9840D01*
X99005Y9688D01*
X99049Y9692D01*
X99115Y9688D01*
X100852Y9840D01*
G37*
G36*
X321832Y312100D02*
X321832Y312100D01*
X321875Y312112D01*
X321941Y312119D01*
X323624Y312570D01*
X323665Y312589D01*
X323728Y312608D01*
X325308Y313345D01*
X325345Y313371D01*
X325404Y313400D01*
X326832Y314400D01*
X326863Y314432D01*
X326916Y314471D01*
X328149Y315704D01*
X328174Y315740D01*
X328220Y315788D01*
X329220Y317216D01*
X329238Y317257D01*
X329275Y317312D01*
X330012Y318892D01*
X330023Y318935D01*
X330050Y318996D01*
X330501Y320679D01*
X330503Y320711D01*
X330510Y320732D01*
X330510Y320747D01*
X330520Y320788D01*
X330672Y322525D01*
X330668Y322569D01*
X330672Y322635D01*
X330520Y324372D01*
X330508Y324415D01*
X330501Y324481D01*
X330050Y326164D01*
X330031Y326205D01*
X330012Y326268D01*
X329275Y327848D01*
X329249Y327885D01*
X329220Y327944D01*
X328220Y329372D01*
X328188Y329403D01*
X328149Y329456D01*
X326916Y330689D01*
X326880Y330714D01*
X326832Y330760D01*
X325404Y331760D01*
X325363Y331778D01*
X325308Y331815D01*
X323728Y332552D01*
X323685Y332563D01*
X323624Y332590D01*
X321941Y333041D01*
X321896Y333044D01*
X321832Y333060D01*
X320095Y333212D01*
X320051Y333208D01*
X319985Y333212D01*
X318248Y333060D01*
X318205Y333048D01*
X318139Y333041D01*
X316456Y332590D01*
X316415Y332571D01*
X316352Y332552D01*
X314772Y331815D01*
X314735Y331789D01*
X314676Y331760D01*
X313248Y330760D01*
X313217Y330728D01*
X313164Y330689D01*
X311931Y329456D01*
X311906Y329420D01*
X311860Y329372D01*
X310860Y327944D01*
X310842Y327903D01*
X310805Y327848D01*
X310068Y326268D01*
X310057Y326225D01*
X310030Y326164D01*
X309579Y324481D01*
X309576Y324436D01*
X309560Y324372D01*
X309408Y322635D01*
X309412Y322591D01*
X309408Y322525D01*
X309560Y320788D01*
X309572Y320745D01*
X309576Y320711D01*
X309576Y320695D01*
X309578Y320690D01*
X309579Y320679D01*
X310030Y318996D01*
X310049Y318955D01*
X310068Y318892D01*
X310805Y317312D01*
X310831Y317275D01*
X310860Y317216D01*
X311860Y315788D01*
X311892Y315757D01*
X311931Y315704D01*
X313164Y314471D01*
X313200Y314446D01*
X313248Y314400D01*
X314676Y313400D01*
X314717Y313382D01*
X314772Y313345D01*
X316352Y312608D01*
X316395Y312597D01*
X316456Y312570D01*
X318139Y312119D01*
X318184Y312116D01*
X318248Y312100D01*
X319985Y311948D01*
X320029Y311952D01*
X320095Y311948D01*
X321832Y312100D01*
G37*
G36*
X438672Y428940D02*
X438672Y428940D01*
X438715Y428952D01*
X438781Y428959D01*
X440464Y429410D01*
X440505Y429429D01*
X440568Y429448D01*
X442148Y430185D01*
X442185Y430211D01*
X442244Y430240D01*
X443672Y431240D01*
X443703Y431272D01*
X443756Y431311D01*
X444989Y432544D01*
X445014Y432580D01*
X445060Y432628D01*
X446060Y434056D01*
X446078Y434097D01*
X446115Y434152D01*
X446852Y435732D01*
X446863Y435775D01*
X446890Y435836D01*
X447341Y437519D01*
X447343Y437551D01*
X447350Y437572D01*
X447350Y437587D01*
X447360Y437628D01*
X447512Y439365D01*
X447508Y439409D01*
X447512Y439475D01*
X447360Y441212D01*
X447348Y441255D01*
X447341Y441321D01*
X446890Y443004D01*
X446871Y443045D01*
X446852Y443108D01*
X446115Y444688D01*
X446089Y444725D01*
X446060Y444784D01*
X445060Y446212D01*
X445028Y446243D01*
X444989Y446296D01*
X443756Y447529D01*
X443720Y447554D01*
X443672Y447600D01*
X442244Y448600D01*
X442203Y448618D01*
X442148Y448655D01*
X440568Y449392D01*
X440525Y449403D01*
X440464Y449430D01*
X438781Y449881D01*
X438736Y449884D01*
X438672Y449900D01*
X436935Y450052D01*
X436891Y450048D01*
X436825Y450052D01*
X435088Y449900D01*
X435045Y449888D01*
X434979Y449881D01*
X433296Y449430D01*
X433255Y449411D01*
X433192Y449392D01*
X431612Y448655D01*
X431575Y448629D01*
X431516Y448600D01*
X430088Y447600D01*
X430057Y447568D01*
X430004Y447529D01*
X428771Y446296D01*
X428746Y446260D01*
X428700Y446212D01*
X427700Y444784D01*
X427682Y444743D01*
X427645Y444688D01*
X426908Y443108D01*
X426897Y443065D01*
X426870Y443004D01*
X426419Y441321D01*
X426416Y441276D01*
X426400Y441212D01*
X426248Y439475D01*
X426252Y439431D01*
X426248Y439365D01*
X426400Y437628D01*
X426412Y437585D01*
X426416Y437551D01*
X426416Y437535D01*
X426418Y437530D01*
X426419Y437519D01*
X426870Y435836D01*
X426889Y435795D01*
X426908Y435732D01*
X427645Y434152D01*
X427671Y434115D01*
X427700Y434056D01*
X428700Y432628D01*
X428732Y432597D01*
X428771Y432544D01*
X430004Y431311D01*
X430040Y431286D01*
X430088Y431240D01*
X431516Y430240D01*
X431557Y430222D01*
X431612Y430185D01*
X433192Y429448D01*
X433235Y429437D01*
X433296Y429410D01*
X434979Y428959D01*
X435024Y428956D01*
X435088Y428940D01*
X436825Y428788D01*
X436869Y428792D01*
X436935Y428788D01*
X438672Y428940D01*
G37*
G36*
X490683Y300573D02*
X490683Y300573D01*
X490686Y300571D01*
X491798Y300696D01*
X491804Y300702D01*
X491809Y300699D01*
X492866Y301069D01*
X492870Y301076D01*
X492876Y301073D01*
X493824Y301669D01*
X493827Y301677D01*
X493832Y301676D01*
X494624Y302468D01*
X494625Y302476D01*
X494631Y302476D01*
X495227Y303424D01*
X495226Y303433D01*
X495231Y303434D01*
X495601Y304491D01*
X495600Y304495D01*
X495602Y304497D01*
X495600Y304500D01*
X495604Y304502D01*
X495729Y305615D01*
X495725Y305622D01*
X495729Y305626D01*
X495604Y306738D01*
X495598Y306744D01*
X495601Y306749D01*
X495231Y307806D01*
X495225Y307810D01*
X495227Y307816D01*
X494631Y308764D01*
X494623Y308767D01*
X494624Y308772D01*
X493832Y309564D01*
X493824Y309565D01*
X493824Y309571D01*
X492876Y310167D01*
X492867Y310166D01*
X492866Y310171D01*
X491809Y310541D01*
X491801Y310539D01*
X491798Y310544D01*
X490686Y310669D01*
X490682Y310667D01*
X490680Y310669D01*
X484680Y310669D01*
X484677Y310667D01*
X484676Y310667D01*
X484675Y310669D01*
X483562Y310544D01*
X483556Y310538D01*
X483551Y310541D01*
X482494Y310171D01*
X482490Y310165D01*
X482484Y310167D01*
X481536Y309571D01*
X481533Y309563D01*
X481528Y309564D01*
X480736Y308772D01*
X480735Y308764D01*
X480729Y308764D01*
X480133Y307816D01*
X480134Y307807D01*
X480129Y307806D01*
X479759Y306749D01*
X479761Y306743D01*
X479757Y306740D01*
X479758Y306739D01*
X479756Y306738D01*
X479631Y305626D01*
X479635Y305618D01*
X479631Y305615D01*
X479756Y304502D01*
X479762Y304496D01*
X479759Y304491D01*
X480129Y303434D01*
X480136Y303430D01*
X480133Y303424D01*
X480729Y302476D01*
X480737Y302473D01*
X480736Y302468D01*
X481528Y301676D01*
X481536Y301675D01*
X481536Y301669D01*
X482484Y301073D01*
X482493Y301074D01*
X482494Y301069D01*
X483551Y300699D01*
X483559Y300701D01*
X483562Y300696D01*
X484675Y300571D01*
X484678Y300573D01*
X484680Y300571D01*
X490680Y300571D01*
X490683Y300573D01*
G37*
G36*
X490683Y390373D02*
X490683Y390373D01*
X490686Y390371D01*
X491798Y390496D01*
X491804Y390502D01*
X491809Y390499D01*
X492866Y390869D01*
X492870Y390876D01*
X492876Y390873D01*
X493824Y391469D01*
X493827Y391477D01*
X493832Y391476D01*
X494624Y392268D01*
X494625Y392276D01*
X494631Y392276D01*
X495227Y393224D01*
X495226Y393233D01*
X495231Y393234D01*
X495601Y394291D01*
X495600Y394295D01*
X495602Y394297D01*
X495600Y394300D01*
X495604Y394302D01*
X495729Y395415D01*
X495725Y395422D01*
X495729Y395426D01*
X495604Y396538D01*
X495598Y396544D01*
X495601Y396549D01*
X495231Y397606D01*
X495225Y397610D01*
X495227Y397616D01*
X494631Y398564D01*
X494623Y398567D01*
X494624Y398572D01*
X493832Y399364D01*
X493824Y399365D01*
X493824Y399371D01*
X492876Y399967D01*
X492867Y399966D01*
X492866Y399971D01*
X491809Y400341D01*
X491801Y400339D01*
X491798Y400344D01*
X490686Y400469D01*
X490682Y400467D01*
X490680Y400469D01*
X484680Y400469D01*
X484677Y400467D01*
X484676Y400467D01*
X484675Y400469D01*
X483562Y400344D01*
X483556Y400338D01*
X483551Y400341D01*
X482494Y399971D01*
X482490Y399965D01*
X482484Y399967D01*
X481536Y399371D01*
X481533Y399363D01*
X481528Y399364D01*
X480736Y398572D01*
X480735Y398564D01*
X480729Y398564D01*
X480133Y397616D01*
X480134Y397607D01*
X480129Y397606D01*
X479759Y396549D01*
X479761Y396543D01*
X479757Y396540D01*
X479758Y396539D01*
X479756Y396538D01*
X479631Y395426D01*
X479635Y395418D01*
X479631Y395415D01*
X479756Y394302D01*
X479762Y394296D01*
X479759Y394291D01*
X480129Y393234D01*
X480136Y393230D01*
X480133Y393224D01*
X480729Y392276D01*
X480737Y392273D01*
X480736Y392268D01*
X481528Y391476D01*
X481536Y391475D01*
X481536Y391469D01*
X482484Y390873D01*
X482493Y390874D01*
X482494Y390869D01*
X483551Y390499D01*
X483559Y390501D01*
X483562Y390496D01*
X484675Y390371D01*
X484678Y390373D01*
X484680Y390371D01*
X490680Y390371D01*
X490683Y390373D01*
G37*
G36*
X490683Y99913D02*
X490683Y99913D01*
X490686Y99911D01*
X491798Y100036D01*
X491804Y100042D01*
X491809Y100039D01*
X492866Y100409D01*
X492870Y100416D01*
X492876Y100413D01*
X493824Y101009D01*
X493827Y101017D01*
X493832Y101016D01*
X494624Y101808D01*
X494625Y101816D01*
X494631Y101816D01*
X495227Y102764D01*
X495226Y102773D01*
X495231Y102774D01*
X495601Y103831D01*
X495600Y103835D01*
X495602Y103837D01*
X495600Y103840D01*
X495604Y103842D01*
X495729Y104955D01*
X495725Y104962D01*
X495729Y104966D01*
X495604Y106078D01*
X495598Y106084D01*
X495601Y106089D01*
X495231Y107146D01*
X495225Y107150D01*
X495227Y107156D01*
X494631Y108104D01*
X494623Y108107D01*
X494624Y108112D01*
X493832Y108904D01*
X493824Y108905D01*
X493824Y108911D01*
X492876Y109507D01*
X492867Y109506D01*
X492866Y109511D01*
X491809Y109881D01*
X491801Y109879D01*
X491798Y109884D01*
X490686Y110009D01*
X490682Y110007D01*
X490680Y110009D01*
X484680Y110009D01*
X484677Y110007D01*
X484676Y110007D01*
X484675Y110009D01*
X483562Y109884D01*
X483556Y109878D01*
X483551Y109881D01*
X482494Y109511D01*
X482490Y109505D01*
X482484Y109507D01*
X481536Y108911D01*
X481533Y108903D01*
X481528Y108904D01*
X480736Y108112D01*
X480735Y108104D01*
X480729Y108104D01*
X480133Y107156D01*
X480134Y107147D01*
X480129Y107146D01*
X479759Y106089D01*
X479761Y106083D01*
X479757Y106080D01*
X479758Y106079D01*
X479756Y106078D01*
X479631Y104966D01*
X479635Y104958D01*
X479631Y104955D01*
X479756Y103842D01*
X479762Y103836D01*
X479759Y103831D01*
X480129Y102774D01*
X480136Y102770D01*
X480133Y102764D01*
X480729Y101816D01*
X480737Y101813D01*
X480736Y101808D01*
X481528Y101016D01*
X481536Y101015D01*
X481536Y101009D01*
X482484Y100413D01*
X482493Y100414D01*
X482494Y100409D01*
X483551Y100039D01*
X483559Y100041D01*
X483562Y100036D01*
X484675Y99911D01*
X484678Y99913D01*
X484680Y99911D01*
X490680Y99911D01*
X490683Y99913D01*
G37*
G36*
X446683Y386773D02*
X446683Y386773D01*
X446686Y386771D01*
X447798Y386896D01*
X447804Y386902D01*
X447809Y386899D01*
X448866Y387269D01*
X448870Y387276D01*
X448876Y387273D01*
X449824Y387869D01*
X449827Y387877D01*
X449832Y387876D01*
X450624Y388668D01*
X450625Y388676D01*
X450631Y388676D01*
X451227Y389624D01*
X451226Y389633D01*
X451231Y389634D01*
X451601Y390691D01*
X451600Y390695D01*
X451602Y390697D01*
X451600Y390700D01*
X451604Y390702D01*
X451729Y391815D01*
X451725Y391822D01*
X451729Y391826D01*
X451604Y392938D01*
X451598Y392944D01*
X451601Y392949D01*
X451231Y394006D01*
X451225Y394010D01*
X451227Y394016D01*
X450631Y394964D01*
X450623Y394967D01*
X450624Y394972D01*
X449832Y395764D01*
X449824Y395765D01*
X449824Y395771D01*
X448876Y396367D01*
X448867Y396366D01*
X448866Y396371D01*
X447809Y396741D01*
X447801Y396739D01*
X447798Y396744D01*
X446686Y396869D01*
X446682Y396867D01*
X446680Y396869D01*
X440680Y396869D01*
X440677Y396867D01*
X440676Y396867D01*
X440675Y396869D01*
X439562Y396744D01*
X439556Y396738D01*
X439551Y396741D01*
X438494Y396371D01*
X438490Y396365D01*
X438484Y396367D01*
X437536Y395771D01*
X437533Y395763D01*
X437528Y395764D01*
X436736Y394972D01*
X436735Y394964D01*
X436729Y394964D01*
X436133Y394016D01*
X436134Y394007D01*
X436129Y394006D01*
X435759Y392949D01*
X435761Y392943D01*
X435757Y392940D01*
X435758Y392939D01*
X435756Y392938D01*
X435631Y391826D01*
X435635Y391818D01*
X435631Y391815D01*
X435756Y390702D01*
X435762Y390696D01*
X435759Y390691D01*
X436129Y389634D01*
X436136Y389630D01*
X436133Y389624D01*
X436729Y388676D01*
X436737Y388673D01*
X436736Y388668D01*
X437528Y387876D01*
X437536Y387875D01*
X437536Y387869D01*
X438484Y387273D01*
X438493Y387274D01*
X438494Y387269D01*
X439551Y386899D01*
X439559Y386901D01*
X439562Y386896D01*
X440675Y386771D01*
X440678Y386773D01*
X440680Y386771D01*
X446680Y386771D01*
X446683Y386773D01*
G37*
G36*
X490683Y189713D02*
X490683Y189713D01*
X490686Y189711D01*
X491798Y189836D01*
X491804Y189842D01*
X491809Y189839D01*
X492866Y190209D01*
X492870Y190216D01*
X492876Y190213D01*
X493824Y190809D01*
X493827Y190817D01*
X493832Y190816D01*
X494624Y191608D01*
X494625Y191616D01*
X494631Y191616D01*
X495227Y192564D01*
X495226Y192573D01*
X495231Y192574D01*
X495601Y193631D01*
X495600Y193635D01*
X495602Y193637D01*
X495600Y193640D01*
X495604Y193642D01*
X495729Y194755D01*
X495725Y194762D01*
X495729Y194766D01*
X495604Y195878D01*
X495598Y195884D01*
X495601Y195889D01*
X495231Y196946D01*
X495225Y196950D01*
X495227Y196956D01*
X494631Y197904D01*
X494623Y197907D01*
X494624Y197912D01*
X493832Y198704D01*
X493824Y198705D01*
X493824Y198711D01*
X492876Y199307D01*
X492867Y199306D01*
X492866Y199311D01*
X491809Y199681D01*
X491801Y199679D01*
X491798Y199684D01*
X490686Y199809D01*
X490682Y199807D01*
X490680Y199809D01*
X484680Y199809D01*
X484677Y199807D01*
X484676Y199807D01*
X484675Y199809D01*
X483562Y199684D01*
X483556Y199678D01*
X483551Y199681D01*
X482494Y199311D01*
X482490Y199305D01*
X482484Y199307D01*
X481536Y198711D01*
X481533Y198703D01*
X481528Y198704D01*
X480736Y197912D01*
X480735Y197904D01*
X480729Y197904D01*
X480133Y196956D01*
X480134Y196947D01*
X480129Y196946D01*
X479759Y195889D01*
X479761Y195883D01*
X479757Y195880D01*
X479758Y195879D01*
X479756Y195878D01*
X479631Y194766D01*
X479635Y194758D01*
X479631Y194755D01*
X479756Y193642D01*
X479762Y193636D01*
X479759Y193631D01*
X480129Y192574D01*
X480136Y192570D01*
X480133Y192564D01*
X480729Y191616D01*
X480737Y191613D01*
X480736Y191608D01*
X481528Y190816D01*
X481536Y190815D01*
X481536Y190809D01*
X482484Y190213D01*
X482493Y190214D01*
X482494Y190209D01*
X483551Y189839D01*
X483559Y189841D01*
X483562Y189836D01*
X484675Y189711D01*
X484678Y189713D01*
X484680Y189711D01*
X490680Y189711D01*
X490683Y189713D01*
G37*
G36*
X446683Y304173D02*
X446683Y304173D01*
X446686Y304171D01*
X447798Y304296D01*
X447804Y304302D01*
X447809Y304299D01*
X448866Y304669D01*
X448870Y304676D01*
X448876Y304673D01*
X449824Y305269D01*
X449827Y305277D01*
X449832Y305276D01*
X450624Y306068D01*
X450625Y306076D01*
X450631Y306076D01*
X451227Y307024D01*
X451226Y307033D01*
X451231Y307034D01*
X451601Y308091D01*
X451600Y308095D01*
X451602Y308097D01*
X451600Y308100D01*
X451604Y308102D01*
X451729Y309215D01*
X451725Y309222D01*
X451729Y309226D01*
X451604Y310338D01*
X451598Y310344D01*
X451601Y310349D01*
X451231Y311406D01*
X451225Y311410D01*
X451227Y311416D01*
X450631Y312364D01*
X450623Y312367D01*
X450624Y312372D01*
X449832Y313164D01*
X449824Y313165D01*
X449824Y313171D01*
X448876Y313767D01*
X448867Y313766D01*
X448866Y313771D01*
X447809Y314141D01*
X447801Y314139D01*
X447798Y314144D01*
X446686Y314269D01*
X446682Y314267D01*
X446680Y314269D01*
X440680Y314269D01*
X440677Y314267D01*
X440676Y314267D01*
X440675Y314269D01*
X439562Y314144D01*
X439556Y314138D01*
X439551Y314141D01*
X438494Y313771D01*
X438490Y313765D01*
X438484Y313767D01*
X437536Y313171D01*
X437533Y313163D01*
X437528Y313164D01*
X436736Y312372D01*
X436735Y312364D01*
X436729Y312364D01*
X436133Y311416D01*
X436134Y311407D01*
X436129Y311406D01*
X435759Y310349D01*
X435761Y310343D01*
X435757Y310340D01*
X435758Y310339D01*
X435756Y310338D01*
X435631Y309226D01*
X435635Y309218D01*
X435631Y309215D01*
X435756Y308102D01*
X435762Y308096D01*
X435759Y308091D01*
X436129Y307034D01*
X436136Y307030D01*
X436133Y307024D01*
X436729Y306076D01*
X436737Y306073D01*
X436736Y306068D01*
X437528Y305276D01*
X437536Y305275D01*
X437536Y305269D01*
X438484Y304673D01*
X438493Y304674D01*
X438494Y304669D01*
X439551Y304299D01*
X439559Y304301D01*
X439562Y304296D01*
X440675Y304171D01*
X440678Y304173D01*
X440680Y304171D01*
X446680Y304171D01*
X446683Y304173D01*
G37*
G36*
X446683Y103513D02*
X446683Y103513D01*
X446686Y103511D01*
X447798Y103636D01*
X447804Y103642D01*
X447809Y103639D01*
X448866Y104009D01*
X448870Y104016D01*
X448876Y104013D01*
X449824Y104609D01*
X449827Y104617D01*
X449832Y104616D01*
X450624Y105408D01*
X450625Y105416D01*
X450631Y105416D01*
X451227Y106364D01*
X451226Y106373D01*
X451231Y106374D01*
X451601Y107431D01*
X451600Y107435D01*
X451602Y107437D01*
X451600Y107440D01*
X451604Y107442D01*
X451729Y108555D01*
X451725Y108562D01*
X451729Y108566D01*
X451604Y109678D01*
X451598Y109684D01*
X451601Y109689D01*
X451231Y110746D01*
X451225Y110750D01*
X451227Y110756D01*
X450631Y111704D01*
X450623Y111707D01*
X450624Y111712D01*
X449832Y112504D01*
X449824Y112505D01*
X449824Y112511D01*
X448876Y113107D01*
X448867Y113106D01*
X448866Y113111D01*
X447809Y113481D01*
X447801Y113479D01*
X447798Y113484D01*
X446686Y113609D01*
X446682Y113607D01*
X446680Y113609D01*
X440680Y113609D01*
X440677Y113607D01*
X440676Y113607D01*
X440675Y113609D01*
X439562Y113484D01*
X439556Y113478D01*
X439551Y113481D01*
X438494Y113111D01*
X438490Y113105D01*
X438484Y113107D01*
X437536Y112511D01*
X437533Y112503D01*
X437528Y112504D01*
X436736Y111712D01*
X436735Y111704D01*
X436729Y111704D01*
X436133Y110756D01*
X436134Y110747D01*
X436129Y110746D01*
X435759Y109689D01*
X435761Y109683D01*
X435757Y109680D01*
X435758Y109679D01*
X435756Y109678D01*
X435631Y108566D01*
X435635Y108558D01*
X435631Y108555D01*
X435756Y107442D01*
X435762Y107436D01*
X435759Y107431D01*
X436129Y106374D01*
X436136Y106370D01*
X436133Y106364D01*
X436729Y105416D01*
X436737Y105413D01*
X436736Y105408D01*
X437528Y104616D01*
X437536Y104615D01*
X437536Y104609D01*
X438484Y104013D01*
X438493Y104014D01*
X438494Y104009D01*
X439551Y103639D01*
X439559Y103641D01*
X439562Y103636D01*
X440675Y103511D01*
X440678Y103513D01*
X440680Y103511D01*
X446680Y103511D01*
X446683Y103513D01*
G37*
G36*
X446683Y186113D02*
X446683Y186113D01*
X446686Y186111D01*
X447798Y186236D01*
X447804Y186242D01*
X447809Y186239D01*
X448866Y186609D01*
X448870Y186616D01*
X448876Y186613D01*
X449824Y187209D01*
X449827Y187217D01*
X449832Y187216D01*
X450624Y188008D01*
X450625Y188016D01*
X450631Y188016D01*
X451227Y188964D01*
X451226Y188973D01*
X451231Y188974D01*
X451601Y190031D01*
X451600Y190035D01*
X451602Y190037D01*
X451600Y190040D01*
X451604Y190042D01*
X451729Y191155D01*
X451725Y191162D01*
X451729Y191166D01*
X451604Y192278D01*
X451598Y192284D01*
X451601Y192289D01*
X451231Y193346D01*
X451225Y193350D01*
X451227Y193356D01*
X450631Y194304D01*
X450623Y194307D01*
X450624Y194312D01*
X449832Y195104D01*
X449824Y195105D01*
X449824Y195111D01*
X448876Y195707D01*
X448867Y195706D01*
X448866Y195711D01*
X447809Y196081D01*
X447801Y196079D01*
X447798Y196084D01*
X446686Y196209D01*
X446682Y196207D01*
X446680Y196209D01*
X440680Y196209D01*
X440677Y196207D01*
X440676Y196207D01*
X440675Y196209D01*
X439562Y196084D01*
X439556Y196078D01*
X439551Y196081D01*
X438494Y195711D01*
X438490Y195705D01*
X438484Y195707D01*
X437536Y195111D01*
X437533Y195103D01*
X437528Y195104D01*
X436736Y194312D01*
X436735Y194304D01*
X436729Y194304D01*
X436133Y193356D01*
X436134Y193347D01*
X436129Y193346D01*
X435759Y192289D01*
X435761Y192283D01*
X435757Y192280D01*
X435758Y192279D01*
X435756Y192278D01*
X435631Y191166D01*
X435635Y191158D01*
X435631Y191155D01*
X435756Y190042D01*
X435762Y190036D01*
X435759Y190031D01*
X436129Y188974D01*
X436136Y188970D01*
X436133Y188964D01*
X436729Y188016D01*
X436737Y188013D01*
X436736Y188008D01*
X437528Y187216D01*
X437536Y187215D01*
X437536Y187209D01*
X438484Y186613D01*
X438493Y186614D01*
X438494Y186609D01*
X439551Y186239D01*
X439559Y186241D01*
X439562Y186236D01*
X440675Y186111D01*
X440678Y186113D01*
X440680Y186111D01*
X446680Y186111D01*
X446683Y186113D01*
G37*
G36*
X306738Y4776D02*
X306738Y4776D01*
X306744Y4782D01*
X306749Y4779D01*
X307806Y5149D01*
X307810Y5156D01*
X307816Y5153D01*
X308764Y5749D01*
X308767Y5757D01*
X308772Y5756D01*
X309564Y6548D01*
X309565Y6556D01*
X309571Y6556D01*
X310167Y7504D01*
X310166Y7513D01*
X310171Y7514D01*
X310541Y8571D01*
X310540Y8575D01*
X310542Y8577D01*
X310540Y8580D01*
X310544Y8582D01*
X310669Y9695D01*
X310667Y9698D01*
X310669Y9700D01*
X310669Y15700D01*
X310667Y15703D01*
X310669Y15706D01*
X310544Y16818D01*
X310538Y16824D01*
X310541Y16829D01*
X310171Y17886D01*
X310165Y17890D01*
X310167Y17896D01*
X309571Y18844D01*
X309563Y18847D01*
X309564Y18852D01*
X308772Y19644D01*
X308764Y19645D01*
X308764Y19651D01*
X307816Y20247D01*
X307807Y20246D01*
X307806Y20251D01*
X306749Y20621D01*
X306741Y20619D01*
X306738Y20624D01*
X305626Y20749D01*
X305618Y20745D01*
X305615Y20749D01*
X304502Y20624D01*
X304496Y20618D01*
X304491Y20621D01*
X303434Y20251D01*
X303430Y20245D01*
X303424Y20247D01*
X302476Y19651D01*
X302473Y19643D01*
X302468Y19644D01*
X301676Y18852D01*
X301675Y18844D01*
X301669Y18844D01*
X301073Y17896D01*
X301074Y17887D01*
X301069Y17886D01*
X300699Y16829D01*
X300701Y16821D01*
X300696Y16818D01*
X300571Y15706D01*
X300573Y15702D01*
X300571Y15700D01*
X300571Y9700D01*
X300573Y9697D01*
X300571Y9695D01*
X300696Y8582D01*
X300702Y8576D01*
X300699Y8571D01*
X301069Y7514D01*
X301076Y7510D01*
X301073Y7504D01*
X301669Y6556D01*
X301677Y6553D01*
X301676Y6548D01*
X302468Y5756D01*
X302476Y5755D01*
X302476Y5749D01*
X303424Y5153D01*
X303433Y5154D01*
X303434Y5149D01*
X304491Y4779D01*
X304499Y4781D01*
X304502Y4776D01*
X305615Y4651D01*
X305622Y4655D01*
X305626Y4651D01*
X306738Y4776D01*
G37*
G36*
X243078Y435756D02*
X243078Y435756D01*
X243084Y435762D01*
X243089Y435759D01*
X244146Y436129D01*
X244150Y436136D01*
X244156Y436133D01*
X245104Y436729D01*
X245107Y436737D01*
X245112Y436736D01*
X245904Y437528D01*
X245905Y437536D01*
X245911Y437536D01*
X246507Y438484D01*
X246506Y438493D01*
X246511Y438494D01*
X246881Y439551D01*
X246880Y439555D01*
X246882Y439557D01*
X246880Y439560D01*
X246884Y439562D01*
X247009Y440675D01*
X247007Y440678D01*
X247009Y440680D01*
X247009Y446680D01*
X247007Y446683D01*
X247009Y446686D01*
X246884Y447798D01*
X246878Y447804D01*
X246881Y447809D01*
X246511Y448866D01*
X246505Y448870D01*
X246507Y448876D01*
X245911Y449824D01*
X245903Y449827D01*
X245904Y449832D01*
X245112Y450624D01*
X245104Y450625D01*
X245104Y450631D01*
X244156Y451227D01*
X244147Y451226D01*
X244146Y451231D01*
X243089Y451601D01*
X243081Y451599D01*
X243078Y451604D01*
X241966Y451729D01*
X241958Y451725D01*
X241955Y451729D01*
X240842Y451604D01*
X240836Y451598D01*
X240831Y451601D01*
X239774Y451231D01*
X239770Y451225D01*
X239764Y451227D01*
X238816Y450631D01*
X238813Y450623D01*
X238808Y450624D01*
X238016Y449832D01*
X238015Y449824D01*
X238009Y449824D01*
X237413Y448876D01*
X237414Y448867D01*
X237409Y448866D01*
X237039Y447809D01*
X237041Y447801D01*
X237036Y447798D01*
X236911Y446686D01*
X236913Y446682D01*
X236911Y446680D01*
X236911Y440680D01*
X236913Y440677D01*
X236911Y440675D01*
X237036Y439562D01*
X237042Y439556D01*
X237039Y439551D01*
X237409Y438494D01*
X237416Y438490D01*
X237413Y438484D01*
X238009Y437536D01*
X238017Y437533D01*
X238016Y437528D01*
X238808Y436736D01*
X238816Y436735D01*
X238816Y436729D01*
X239764Y436133D01*
X239773Y436134D01*
X239774Y436129D01*
X240831Y435759D01*
X240839Y435761D01*
X240842Y435756D01*
X241955Y435631D01*
X241962Y435635D01*
X241966Y435631D01*
X243078Y435756D01*
G37*
G36*
X160478Y435756D02*
X160478Y435756D01*
X160484Y435762D01*
X160489Y435759D01*
X161546Y436129D01*
X161550Y436136D01*
X161556Y436133D01*
X162504Y436729D01*
X162507Y436737D01*
X162512Y436736D01*
X163304Y437528D01*
X163305Y437536D01*
X163311Y437536D01*
X163907Y438484D01*
X163906Y438493D01*
X163911Y438494D01*
X164281Y439551D01*
X164280Y439555D01*
X164282Y439557D01*
X164280Y439560D01*
X164284Y439562D01*
X164409Y440675D01*
X164407Y440678D01*
X164409Y440680D01*
X164409Y446680D01*
X164407Y446683D01*
X164409Y446686D01*
X164284Y447798D01*
X164278Y447804D01*
X164281Y447809D01*
X163911Y448866D01*
X163905Y448870D01*
X163907Y448876D01*
X163311Y449824D01*
X163303Y449827D01*
X163304Y449832D01*
X162512Y450624D01*
X162504Y450625D01*
X162504Y450631D01*
X161556Y451227D01*
X161547Y451226D01*
X161546Y451231D01*
X160489Y451601D01*
X160481Y451599D01*
X160478Y451604D01*
X159366Y451729D01*
X159358Y451725D01*
X159355Y451729D01*
X158242Y451604D01*
X158236Y451598D01*
X158231Y451601D01*
X157174Y451231D01*
X157170Y451225D01*
X157164Y451227D01*
X156216Y450631D01*
X156213Y450623D01*
X156208Y450624D01*
X155416Y449832D01*
X155415Y449824D01*
X155409Y449824D01*
X154813Y448876D01*
X154814Y448867D01*
X154809Y448866D01*
X154439Y447809D01*
X154441Y447801D01*
X154436Y447798D01*
X154311Y446686D01*
X154313Y446682D01*
X154311Y446680D01*
X154311Y440680D01*
X154313Y440677D01*
X154311Y440675D01*
X154436Y439562D01*
X154442Y439556D01*
X154439Y439551D01*
X154809Y438494D01*
X154816Y438490D01*
X154813Y438484D01*
X155409Y437536D01*
X155417Y437533D01*
X155416Y437528D01*
X156208Y436736D01*
X156216Y436735D01*
X156216Y436729D01*
X157164Y436133D01*
X157173Y436134D01*
X157174Y436129D01*
X158231Y435759D01*
X158239Y435761D01*
X158242Y435756D01*
X159355Y435631D01*
X159362Y435635D01*
X159366Y435631D01*
X160478Y435756D01*
G37*
G36*
X392938Y435756D02*
X392938Y435756D01*
X392944Y435762D01*
X392949Y435759D01*
X394006Y436129D01*
X394010Y436136D01*
X394016Y436133D01*
X394964Y436729D01*
X394967Y436737D01*
X394972Y436736D01*
X395764Y437528D01*
X395765Y437536D01*
X395771Y437536D01*
X396367Y438484D01*
X396366Y438493D01*
X396371Y438494D01*
X396741Y439551D01*
X396740Y439555D01*
X396742Y439557D01*
X396740Y439560D01*
X396744Y439562D01*
X396869Y440675D01*
X396867Y440678D01*
X396869Y440680D01*
X396869Y446680D01*
X396867Y446683D01*
X396869Y446686D01*
X396744Y447798D01*
X396738Y447804D01*
X396741Y447809D01*
X396371Y448866D01*
X396365Y448870D01*
X396367Y448876D01*
X395771Y449824D01*
X395763Y449827D01*
X395764Y449832D01*
X394972Y450624D01*
X394964Y450625D01*
X394964Y450631D01*
X394016Y451227D01*
X394007Y451226D01*
X394006Y451231D01*
X392949Y451601D01*
X392941Y451599D01*
X392938Y451604D01*
X391826Y451729D01*
X391818Y451725D01*
X391815Y451729D01*
X390702Y451604D01*
X390696Y451598D01*
X390691Y451601D01*
X389634Y451231D01*
X389630Y451225D01*
X389624Y451227D01*
X388676Y450631D01*
X388673Y450623D01*
X388668Y450624D01*
X387876Y449832D01*
X387875Y449824D01*
X387869Y449824D01*
X387273Y448876D01*
X387274Y448867D01*
X387269Y448866D01*
X386899Y447809D01*
X386901Y447801D01*
X386896Y447798D01*
X386771Y446686D01*
X386773Y446682D01*
X386771Y446680D01*
X386771Y440680D01*
X386773Y440677D01*
X386771Y440675D01*
X386896Y439562D01*
X386902Y439556D01*
X386899Y439551D01*
X387269Y438494D01*
X387276Y438490D01*
X387273Y438484D01*
X387869Y437536D01*
X387877Y437533D01*
X387876Y437528D01*
X388668Y436736D01*
X388676Y436735D01*
X388676Y436729D01*
X389624Y436133D01*
X389633Y436134D01*
X389634Y436129D01*
X390691Y435759D01*
X390699Y435761D01*
X390702Y435756D01*
X391815Y435631D01*
X391822Y435635D01*
X391826Y435631D01*
X392938Y435756D01*
G37*
G36*
X310338Y435756D02*
X310338Y435756D01*
X310344Y435762D01*
X310349Y435759D01*
X311406Y436129D01*
X311410Y436136D01*
X311416Y436133D01*
X312364Y436729D01*
X312367Y436737D01*
X312372Y436736D01*
X313164Y437528D01*
X313165Y437536D01*
X313171Y437536D01*
X313767Y438484D01*
X313766Y438493D01*
X313771Y438494D01*
X314141Y439551D01*
X314140Y439555D01*
X314142Y439557D01*
X314140Y439560D01*
X314144Y439562D01*
X314269Y440675D01*
X314267Y440678D01*
X314269Y440680D01*
X314269Y446680D01*
X314267Y446683D01*
X314269Y446686D01*
X314144Y447798D01*
X314138Y447804D01*
X314141Y447809D01*
X313771Y448866D01*
X313765Y448870D01*
X313767Y448876D01*
X313171Y449824D01*
X313163Y449827D01*
X313164Y449832D01*
X312372Y450624D01*
X312364Y450625D01*
X312364Y450631D01*
X311416Y451227D01*
X311407Y451226D01*
X311406Y451231D01*
X310349Y451601D01*
X310341Y451599D01*
X310338Y451604D01*
X309226Y451729D01*
X309218Y451725D01*
X309215Y451729D01*
X308102Y451604D01*
X308096Y451598D01*
X308091Y451601D01*
X307034Y451231D01*
X307030Y451225D01*
X307024Y451227D01*
X306076Y450631D01*
X306073Y450623D01*
X306068Y450624D01*
X305276Y449832D01*
X305275Y449824D01*
X305269Y449824D01*
X304673Y448876D01*
X304674Y448867D01*
X304669Y448866D01*
X304299Y447809D01*
X304301Y447801D01*
X304296Y447798D01*
X304171Y446686D01*
X304173Y446682D01*
X304171Y446680D01*
X304171Y440680D01*
X304173Y440677D01*
X304171Y440675D01*
X304296Y439562D01*
X304302Y439556D01*
X304299Y439551D01*
X304669Y438494D01*
X304676Y438490D01*
X304673Y438484D01*
X305269Y437536D01*
X305277Y437533D01*
X305276Y437528D01*
X306068Y436736D01*
X306076Y436735D01*
X306076Y436729D01*
X307024Y436133D01*
X307033Y436134D01*
X307034Y436129D01*
X308091Y435759D01*
X308099Y435761D01*
X308102Y435756D01*
X309215Y435631D01*
X309222Y435635D01*
X309226Y435631D01*
X310338Y435756D01*
G37*
G36*
X396538Y4776D02*
X396538Y4776D01*
X396544Y4782D01*
X396549Y4779D01*
X397606Y5149D01*
X397610Y5156D01*
X397616Y5153D01*
X398564Y5749D01*
X398567Y5757D01*
X398572Y5756D01*
X399364Y6548D01*
X399365Y6556D01*
X399371Y6556D01*
X399967Y7504D01*
X399966Y7513D01*
X399971Y7514D01*
X400341Y8571D01*
X400340Y8575D01*
X400342Y8577D01*
X400340Y8580D01*
X400344Y8582D01*
X400469Y9695D01*
X400467Y9698D01*
X400469Y9700D01*
X400469Y15700D01*
X400467Y15703D01*
X400469Y15706D01*
X400344Y16818D01*
X400338Y16824D01*
X400341Y16829D01*
X399971Y17886D01*
X399965Y17890D01*
X399967Y17896D01*
X399371Y18844D01*
X399363Y18847D01*
X399364Y18852D01*
X398572Y19644D01*
X398564Y19645D01*
X398564Y19651D01*
X397616Y20247D01*
X397607Y20246D01*
X397606Y20251D01*
X396549Y20621D01*
X396541Y20619D01*
X396538Y20624D01*
X395426Y20749D01*
X395418Y20745D01*
X395415Y20749D01*
X394302Y20624D01*
X394296Y20618D01*
X394291Y20621D01*
X393234Y20251D01*
X393230Y20245D01*
X393224Y20247D01*
X392276Y19651D01*
X392273Y19643D01*
X392268Y19644D01*
X391476Y18852D01*
X391475Y18844D01*
X391469Y18844D01*
X390873Y17896D01*
X390874Y17887D01*
X390869Y17886D01*
X390499Y16829D01*
X390501Y16821D01*
X390496Y16818D01*
X390371Y15706D01*
X390373Y15702D01*
X390371Y15700D01*
X390371Y9700D01*
X390373Y9697D01*
X390371Y9695D01*
X390496Y8582D01*
X390502Y8576D01*
X390499Y8571D01*
X390869Y7514D01*
X390876Y7510D01*
X390873Y7504D01*
X391469Y6556D01*
X391477Y6553D01*
X391476Y6548D01*
X392268Y5756D01*
X392276Y5755D01*
X392276Y5749D01*
X393224Y5153D01*
X393233Y5154D01*
X393234Y5149D01*
X394291Y4779D01*
X394299Y4781D01*
X394302Y4776D01*
X395415Y4651D01*
X395422Y4655D01*
X395426Y4651D01*
X396538Y4776D01*
G37*
G36*
X160478Y48776D02*
X160478Y48776D01*
X160484Y48782D01*
X160489Y48779D01*
X161546Y49149D01*
X161550Y49156D01*
X161556Y49153D01*
X162504Y49749D01*
X162507Y49757D01*
X162512Y49756D01*
X163304Y50548D01*
X163305Y50556D01*
X163311Y50556D01*
X163907Y51504D01*
X163906Y51513D01*
X163911Y51514D01*
X164281Y52571D01*
X164280Y52575D01*
X164282Y52577D01*
X164280Y52580D01*
X164284Y52582D01*
X164409Y53695D01*
X164407Y53698D01*
X164409Y53700D01*
X164409Y59700D01*
X164407Y59703D01*
X164409Y59706D01*
X164284Y60818D01*
X164278Y60824D01*
X164281Y60829D01*
X163911Y61886D01*
X163905Y61890D01*
X163907Y61896D01*
X163311Y62844D01*
X163303Y62847D01*
X163304Y62852D01*
X162512Y63644D01*
X162504Y63645D01*
X162504Y63651D01*
X161556Y64247D01*
X161547Y64246D01*
X161546Y64251D01*
X160489Y64621D01*
X160481Y64619D01*
X160478Y64624D01*
X159366Y64749D01*
X159358Y64745D01*
X159355Y64749D01*
X158242Y64624D01*
X158236Y64618D01*
X158231Y64621D01*
X157174Y64251D01*
X157170Y64245D01*
X157164Y64247D01*
X156216Y63651D01*
X156213Y63643D01*
X156208Y63644D01*
X155416Y62852D01*
X155415Y62844D01*
X155409Y62844D01*
X154813Y61896D01*
X154814Y61887D01*
X154809Y61886D01*
X154439Y60829D01*
X154441Y60821D01*
X154436Y60818D01*
X154311Y59706D01*
X154313Y59702D01*
X154311Y59700D01*
X154311Y53700D01*
X154313Y53697D01*
X154311Y53695D01*
X154436Y52582D01*
X154442Y52576D01*
X154439Y52571D01*
X154809Y51514D01*
X154816Y51510D01*
X154813Y51504D01*
X155409Y50556D01*
X155417Y50553D01*
X155416Y50548D01*
X156208Y49756D01*
X156216Y49755D01*
X156216Y49749D01*
X157164Y49153D01*
X157173Y49154D01*
X157174Y49149D01*
X158231Y48779D01*
X158239Y48781D01*
X158242Y48776D01*
X159355Y48651D01*
X159362Y48655D01*
X159366Y48651D01*
X160478Y48776D01*
G37*
G36*
X392938Y48776D02*
X392938Y48776D01*
X392944Y48782D01*
X392949Y48779D01*
X394006Y49149D01*
X394010Y49156D01*
X394016Y49153D01*
X394964Y49749D01*
X394967Y49757D01*
X394972Y49756D01*
X395764Y50548D01*
X395765Y50556D01*
X395771Y50556D01*
X396367Y51504D01*
X396366Y51513D01*
X396371Y51514D01*
X396741Y52571D01*
X396740Y52575D01*
X396742Y52577D01*
X396740Y52580D01*
X396744Y52582D01*
X396869Y53695D01*
X396867Y53698D01*
X396869Y53700D01*
X396869Y59700D01*
X396867Y59703D01*
X396869Y59706D01*
X396744Y60818D01*
X396738Y60824D01*
X396741Y60829D01*
X396371Y61886D01*
X396365Y61890D01*
X396367Y61896D01*
X395771Y62844D01*
X395763Y62847D01*
X395764Y62852D01*
X394972Y63644D01*
X394964Y63645D01*
X394964Y63651D01*
X394016Y64247D01*
X394007Y64246D01*
X394006Y64251D01*
X392949Y64621D01*
X392941Y64619D01*
X392938Y64624D01*
X391826Y64749D01*
X391818Y64745D01*
X391815Y64749D01*
X390702Y64624D01*
X390696Y64618D01*
X390691Y64621D01*
X389634Y64251D01*
X389630Y64245D01*
X389624Y64247D01*
X388676Y63651D01*
X388673Y63643D01*
X388668Y63644D01*
X387876Y62852D01*
X387875Y62844D01*
X387869Y62844D01*
X387273Y61896D01*
X387274Y61887D01*
X387269Y61886D01*
X386899Y60829D01*
X386901Y60821D01*
X386896Y60818D01*
X386771Y59706D01*
X386773Y59702D01*
X386771Y59700D01*
X386771Y53700D01*
X386773Y53697D01*
X386771Y53695D01*
X386896Y52582D01*
X386902Y52576D01*
X386899Y52571D01*
X387269Y51514D01*
X387276Y51510D01*
X387273Y51504D01*
X387869Y50556D01*
X387877Y50553D01*
X387876Y50548D01*
X388668Y49756D01*
X388676Y49755D01*
X388676Y49749D01*
X389624Y49153D01*
X389633Y49154D01*
X389634Y49149D01*
X390691Y48779D01*
X390699Y48781D01*
X390702Y48776D01*
X391815Y48651D01*
X391822Y48655D01*
X391826Y48651D01*
X392938Y48776D01*
G37*
G36*
X243078Y48776D02*
X243078Y48776D01*
X243084Y48782D01*
X243089Y48779D01*
X244146Y49149D01*
X244150Y49156D01*
X244156Y49153D01*
X245104Y49749D01*
X245107Y49757D01*
X245112Y49756D01*
X245904Y50548D01*
X245905Y50556D01*
X245911Y50556D01*
X246507Y51504D01*
X246506Y51513D01*
X246511Y51514D01*
X246881Y52571D01*
X246880Y52575D01*
X246882Y52577D01*
X246880Y52580D01*
X246884Y52582D01*
X247009Y53695D01*
X247007Y53698D01*
X247009Y53700D01*
X247009Y59700D01*
X247007Y59703D01*
X247009Y59706D01*
X246884Y60818D01*
X246878Y60824D01*
X246881Y60829D01*
X246511Y61886D01*
X246505Y61890D01*
X246507Y61896D01*
X245911Y62844D01*
X245903Y62847D01*
X245904Y62852D01*
X245112Y63644D01*
X245104Y63645D01*
X245104Y63651D01*
X244156Y64247D01*
X244147Y64246D01*
X244146Y64251D01*
X243089Y64621D01*
X243081Y64619D01*
X243078Y64624D01*
X241966Y64749D01*
X241958Y64745D01*
X241955Y64749D01*
X240842Y64624D01*
X240836Y64618D01*
X240831Y64621D01*
X239774Y64251D01*
X239770Y64245D01*
X239764Y64247D01*
X238816Y63651D01*
X238813Y63643D01*
X238808Y63644D01*
X238016Y62852D01*
X238015Y62844D01*
X238009Y62844D01*
X237413Y61896D01*
X237414Y61887D01*
X237409Y61886D01*
X237039Y60829D01*
X237041Y60821D01*
X237036Y60818D01*
X236911Y59706D01*
X236913Y59702D01*
X236911Y59700D01*
X236911Y53700D01*
X236913Y53697D01*
X236911Y53695D01*
X237036Y52582D01*
X237042Y52576D01*
X237039Y52571D01*
X237409Y51514D01*
X237416Y51510D01*
X237413Y51504D01*
X238009Y50556D01*
X238017Y50553D01*
X238016Y50548D01*
X238808Y49756D01*
X238816Y49755D01*
X238816Y49749D01*
X239764Y49153D01*
X239773Y49154D01*
X239774Y49149D01*
X240831Y48779D01*
X240839Y48781D01*
X240842Y48776D01*
X241955Y48651D01*
X241962Y48655D01*
X241966Y48651D01*
X243078Y48776D01*
G37*
G36*
X310338Y48776D02*
X310338Y48776D01*
X310344Y48782D01*
X310349Y48779D01*
X311406Y49149D01*
X311410Y49156D01*
X311416Y49153D01*
X312364Y49749D01*
X312367Y49757D01*
X312372Y49756D01*
X313164Y50548D01*
X313165Y50556D01*
X313171Y50556D01*
X313767Y51504D01*
X313766Y51513D01*
X313771Y51514D01*
X314141Y52571D01*
X314140Y52575D01*
X314142Y52577D01*
X314140Y52580D01*
X314144Y52582D01*
X314269Y53695D01*
X314267Y53698D01*
X314269Y53700D01*
X314269Y59700D01*
X314267Y59703D01*
X314269Y59706D01*
X314144Y60818D01*
X314138Y60824D01*
X314141Y60829D01*
X313771Y61886D01*
X313765Y61890D01*
X313767Y61896D01*
X313171Y62844D01*
X313163Y62847D01*
X313164Y62852D01*
X312372Y63644D01*
X312364Y63645D01*
X312364Y63651D01*
X311416Y64247D01*
X311407Y64246D01*
X311406Y64251D01*
X310349Y64621D01*
X310341Y64619D01*
X310338Y64624D01*
X309226Y64749D01*
X309218Y64745D01*
X309215Y64749D01*
X308102Y64624D01*
X308096Y64618D01*
X308091Y64621D01*
X307034Y64251D01*
X307030Y64245D01*
X307024Y64247D01*
X306076Y63651D01*
X306073Y63643D01*
X306068Y63644D01*
X305276Y62852D01*
X305275Y62844D01*
X305269Y62844D01*
X304673Y61896D01*
X304674Y61887D01*
X304669Y61886D01*
X304299Y60829D01*
X304301Y60821D01*
X304296Y60818D01*
X304171Y59706D01*
X304173Y59702D01*
X304171Y59700D01*
X304171Y53700D01*
X304173Y53697D01*
X304171Y53695D01*
X304296Y52582D01*
X304302Y52576D01*
X304299Y52571D01*
X304669Y51514D01*
X304676Y51510D01*
X304673Y51504D01*
X305269Y50556D01*
X305277Y50553D01*
X305276Y50548D01*
X306068Y49756D01*
X306076Y49755D01*
X306076Y49749D01*
X307024Y49153D01*
X307033Y49154D01*
X307034Y49149D01*
X308091Y48779D01*
X308099Y48781D01*
X308102Y48776D01*
X309215Y48651D01*
X309222Y48655D01*
X309226Y48651D01*
X310338Y48776D01*
G37*
G36*
X156878Y4776D02*
X156878Y4776D01*
X156884Y4782D01*
X156889Y4779D01*
X157946Y5149D01*
X157950Y5156D01*
X157956Y5153D01*
X158904Y5749D01*
X158907Y5757D01*
X158912Y5756D01*
X159704Y6548D01*
X159705Y6556D01*
X159711Y6556D01*
X160307Y7504D01*
X160306Y7513D01*
X160311Y7514D01*
X160681Y8571D01*
X160680Y8575D01*
X160682Y8577D01*
X160680Y8580D01*
X160684Y8582D01*
X160809Y9695D01*
X160807Y9698D01*
X160809Y9700D01*
X160809Y15700D01*
X160807Y15703D01*
X160809Y15706D01*
X160684Y16818D01*
X160678Y16824D01*
X160681Y16829D01*
X160311Y17886D01*
X160305Y17890D01*
X160307Y17896D01*
X159711Y18844D01*
X159703Y18847D01*
X159704Y18852D01*
X158912Y19644D01*
X158904Y19645D01*
X158904Y19651D01*
X157956Y20247D01*
X157947Y20246D01*
X157946Y20251D01*
X156889Y20621D01*
X156881Y20619D01*
X156878Y20624D01*
X155766Y20749D01*
X155758Y20745D01*
X155755Y20749D01*
X154642Y20624D01*
X154636Y20618D01*
X154631Y20621D01*
X153574Y20251D01*
X153570Y20245D01*
X153564Y20247D01*
X152616Y19651D01*
X152613Y19643D01*
X152608Y19644D01*
X151816Y18852D01*
X151815Y18844D01*
X151809Y18844D01*
X151213Y17896D01*
X151214Y17887D01*
X151209Y17886D01*
X150839Y16829D01*
X150841Y16821D01*
X150836Y16818D01*
X150711Y15706D01*
X150713Y15702D01*
X150711Y15700D01*
X150711Y9700D01*
X150713Y9697D01*
X150711Y9695D01*
X150836Y8582D01*
X150842Y8576D01*
X150839Y8571D01*
X151209Y7514D01*
X151216Y7510D01*
X151213Y7504D01*
X151809Y6556D01*
X151817Y6553D01*
X151816Y6548D01*
X152608Y5756D01*
X152616Y5755D01*
X152616Y5749D01*
X153564Y5153D01*
X153573Y5154D01*
X153574Y5149D01*
X154631Y4779D01*
X154639Y4781D01*
X154642Y4776D01*
X155755Y4651D01*
X155762Y4655D01*
X155766Y4651D01*
X156878Y4776D01*
G37*
G36*
X246678Y4776D02*
X246678Y4776D01*
X246684Y4782D01*
X246689Y4779D01*
X247746Y5149D01*
X247750Y5156D01*
X247756Y5153D01*
X248704Y5749D01*
X248707Y5757D01*
X248712Y5756D01*
X249504Y6548D01*
X249505Y6556D01*
X249511Y6556D01*
X250107Y7504D01*
X250106Y7513D01*
X250111Y7514D01*
X250481Y8571D01*
X250480Y8575D01*
X250482Y8577D01*
X250480Y8580D01*
X250484Y8582D01*
X250609Y9695D01*
X250607Y9698D01*
X250609Y9700D01*
X250609Y15700D01*
X250607Y15703D01*
X250609Y15706D01*
X250484Y16818D01*
X250478Y16824D01*
X250481Y16829D01*
X250111Y17886D01*
X250105Y17890D01*
X250107Y17896D01*
X249511Y18844D01*
X249503Y18847D01*
X249504Y18852D01*
X248712Y19644D01*
X248704Y19645D01*
X248704Y19651D01*
X247756Y20247D01*
X247747Y20246D01*
X247746Y20251D01*
X246689Y20621D01*
X246681Y20619D01*
X246678Y20624D01*
X245566Y20749D01*
X245558Y20745D01*
X245555Y20749D01*
X244442Y20624D01*
X244436Y20618D01*
X244431Y20621D01*
X243374Y20251D01*
X243370Y20245D01*
X243364Y20247D01*
X242416Y19651D01*
X242413Y19643D01*
X242408Y19644D01*
X241616Y18852D01*
X241615Y18844D01*
X241609Y18844D01*
X241013Y17896D01*
X241014Y17887D01*
X241009Y17886D01*
X240639Y16829D01*
X240641Y16821D01*
X240636Y16818D01*
X240511Y15706D01*
X240513Y15702D01*
X240511Y15700D01*
X240511Y9700D01*
X240513Y9697D01*
X240511Y9695D01*
X240636Y8582D01*
X240642Y8576D01*
X240639Y8571D01*
X241009Y7514D01*
X241016Y7510D01*
X241013Y7504D01*
X241609Y6556D01*
X241617Y6553D01*
X241616Y6548D01*
X242408Y5756D01*
X242416Y5755D01*
X242416Y5749D01*
X243364Y5153D01*
X243373Y5154D01*
X243374Y5149D01*
X244431Y4779D01*
X244439Y4781D01*
X244442Y4776D01*
X245555Y4651D01*
X245562Y4655D01*
X245566Y4651D01*
X246678Y4776D01*
G37*
G36*
X396538Y479756D02*
X396538Y479756D01*
X396544Y479762D01*
X396549Y479759D01*
X397606Y480129D01*
X397610Y480136D01*
X397616Y480133D01*
X398564Y480729D01*
X398567Y480737D01*
X398572Y480736D01*
X399364Y481528D01*
X399365Y481536D01*
X399371Y481536D01*
X399967Y482484D01*
X399966Y482493D01*
X399971Y482494D01*
X400341Y483551D01*
X400340Y483555D01*
X400342Y483557D01*
X400340Y483560D01*
X400344Y483562D01*
X400469Y484675D01*
X400467Y484678D01*
X400469Y484680D01*
X400469Y490680D01*
X400467Y490683D01*
X400469Y490686D01*
X400344Y491798D01*
X400338Y491804D01*
X400341Y491809D01*
X399971Y492866D01*
X399965Y492870D01*
X399967Y492876D01*
X399371Y493824D01*
X399363Y493827D01*
X399364Y493832D01*
X398572Y494624D01*
X398564Y494625D01*
X398564Y494631D01*
X397616Y495227D01*
X397607Y495226D01*
X397606Y495231D01*
X396549Y495601D01*
X396541Y495599D01*
X396538Y495604D01*
X395426Y495729D01*
X395418Y495725D01*
X395415Y495729D01*
X394302Y495604D01*
X394296Y495598D01*
X394291Y495601D01*
X393234Y495231D01*
X393230Y495225D01*
X393224Y495227D01*
X392276Y494631D01*
X392273Y494623D01*
X392268Y494624D01*
X391476Y493832D01*
X391475Y493824D01*
X391469Y493824D01*
X390873Y492876D01*
X390874Y492867D01*
X390869Y492866D01*
X390499Y491809D01*
X390501Y491801D01*
X390496Y491798D01*
X390371Y490686D01*
X390373Y490682D01*
X390371Y490680D01*
X390371Y484680D01*
X390373Y484677D01*
X390371Y484675D01*
X390496Y483562D01*
X390502Y483556D01*
X390499Y483551D01*
X390869Y482494D01*
X390876Y482490D01*
X390873Y482484D01*
X391469Y481536D01*
X391477Y481533D01*
X391476Y481528D01*
X392268Y480736D01*
X392276Y480735D01*
X392276Y480729D01*
X393224Y480133D01*
X393233Y480134D01*
X393234Y480129D01*
X394291Y479759D01*
X394299Y479761D01*
X394302Y479756D01*
X395415Y479631D01*
X395422Y479635D01*
X395426Y479631D01*
X396538Y479756D01*
G37*
G36*
X156878Y479756D02*
X156878Y479756D01*
X156884Y479762D01*
X156889Y479759D01*
X157946Y480129D01*
X157950Y480136D01*
X157956Y480133D01*
X158904Y480729D01*
X158907Y480737D01*
X158912Y480736D01*
X159704Y481528D01*
X159705Y481536D01*
X159711Y481536D01*
X160307Y482484D01*
X160306Y482493D01*
X160311Y482494D01*
X160681Y483551D01*
X160680Y483555D01*
X160682Y483557D01*
X160680Y483560D01*
X160684Y483562D01*
X160809Y484675D01*
X160807Y484678D01*
X160809Y484680D01*
X160809Y490680D01*
X160807Y490683D01*
X160809Y490686D01*
X160684Y491798D01*
X160678Y491804D01*
X160681Y491809D01*
X160311Y492866D01*
X160305Y492870D01*
X160307Y492876D01*
X159711Y493824D01*
X159703Y493827D01*
X159704Y493832D01*
X158912Y494624D01*
X158904Y494625D01*
X158904Y494631D01*
X157956Y495227D01*
X157947Y495226D01*
X157946Y495231D01*
X156889Y495601D01*
X156881Y495599D01*
X156878Y495604D01*
X155766Y495729D01*
X155758Y495725D01*
X155755Y495729D01*
X154642Y495604D01*
X154636Y495598D01*
X154631Y495601D01*
X153574Y495231D01*
X153570Y495225D01*
X153564Y495227D01*
X152616Y494631D01*
X152613Y494623D01*
X152608Y494624D01*
X151816Y493832D01*
X151815Y493824D01*
X151809Y493824D01*
X151213Y492876D01*
X151214Y492867D01*
X151209Y492866D01*
X150839Y491809D01*
X150841Y491801D01*
X150836Y491798D01*
X150711Y490686D01*
X150713Y490682D01*
X150711Y490680D01*
X150711Y484680D01*
X150713Y484677D01*
X150711Y484675D01*
X150836Y483562D01*
X150842Y483556D01*
X150839Y483551D01*
X151209Y482494D01*
X151216Y482490D01*
X151213Y482484D01*
X151809Y481536D01*
X151817Y481533D01*
X151816Y481528D01*
X152608Y480736D01*
X152616Y480735D01*
X152616Y480729D01*
X153564Y480133D01*
X153573Y480134D01*
X153574Y480129D01*
X154631Y479759D01*
X154639Y479761D01*
X154642Y479756D01*
X155755Y479631D01*
X155762Y479635D01*
X155766Y479631D01*
X156878Y479756D01*
G37*
G36*
X306738Y479756D02*
X306738Y479756D01*
X306744Y479762D01*
X306749Y479759D01*
X307806Y480129D01*
X307810Y480136D01*
X307816Y480133D01*
X308764Y480729D01*
X308767Y480737D01*
X308772Y480736D01*
X309564Y481528D01*
X309565Y481536D01*
X309571Y481536D01*
X310167Y482484D01*
X310166Y482493D01*
X310171Y482494D01*
X310541Y483551D01*
X310540Y483555D01*
X310542Y483557D01*
X310540Y483560D01*
X310544Y483562D01*
X310669Y484675D01*
X310667Y484678D01*
X310669Y484680D01*
X310669Y490680D01*
X310667Y490683D01*
X310669Y490686D01*
X310544Y491798D01*
X310538Y491804D01*
X310541Y491809D01*
X310171Y492866D01*
X310165Y492870D01*
X310167Y492876D01*
X309571Y493824D01*
X309563Y493827D01*
X309564Y493832D01*
X308772Y494624D01*
X308764Y494625D01*
X308764Y494631D01*
X307816Y495227D01*
X307807Y495226D01*
X307806Y495231D01*
X306749Y495601D01*
X306741Y495599D01*
X306738Y495604D01*
X305626Y495729D01*
X305618Y495725D01*
X305615Y495729D01*
X304502Y495604D01*
X304496Y495598D01*
X304491Y495601D01*
X303434Y495231D01*
X303430Y495225D01*
X303424Y495227D01*
X302476Y494631D01*
X302473Y494623D01*
X302468Y494624D01*
X301676Y493832D01*
X301675Y493824D01*
X301669Y493824D01*
X301073Y492876D01*
X301074Y492867D01*
X301069Y492866D01*
X300699Y491809D01*
X300701Y491801D01*
X300696Y491798D01*
X300571Y490686D01*
X300573Y490682D01*
X300571Y490680D01*
X300571Y484680D01*
X300573Y484677D01*
X300571Y484675D01*
X300696Y483562D01*
X300702Y483556D01*
X300699Y483551D01*
X301069Y482494D01*
X301076Y482490D01*
X301073Y482484D01*
X301669Y481536D01*
X301677Y481533D01*
X301676Y481528D01*
X302468Y480736D01*
X302476Y480735D01*
X302476Y480729D01*
X303424Y480133D01*
X303433Y480134D01*
X303434Y480129D01*
X304491Y479759D01*
X304499Y479761D01*
X304502Y479756D01*
X305615Y479631D01*
X305622Y479635D01*
X305626Y479631D01*
X306738Y479756D01*
G37*
G36*
X246678Y479756D02*
X246678Y479756D01*
X246684Y479762D01*
X246689Y479759D01*
X247746Y480129D01*
X247750Y480136D01*
X247756Y480133D01*
X248704Y480729D01*
X248707Y480737D01*
X248712Y480736D01*
X249504Y481528D01*
X249505Y481536D01*
X249511Y481536D01*
X250107Y482484D01*
X250106Y482493D01*
X250111Y482494D01*
X250481Y483551D01*
X250480Y483555D01*
X250482Y483557D01*
X250480Y483560D01*
X250484Y483562D01*
X250609Y484675D01*
X250607Y484678D01*
X250609Y484680D01*
X250609Y490680D01*
X250607Y490683D01*
X250609Y490686D01*
X250484Y491798D01*
X250478Y491804D01*
X250481Y491809D01*
X250111Y492866D01*
X250105Y492870D01*
X250107Y492876D01*
X249511Y493824D01*
X249503Y493827D01*
X249504Y493832D01*
X248712Y494624D01*
X248704Y494625D01*
X248704Y494631D01*
X247756Y495227D01*
X247747Y495226D01*
X247746Y495231D01*
X246689Y495601D01*
X246681Y495599D01*
X246678Y495604D01*
X245566Y495729D01*
X245558Y495725D01*
X245555Y495729D01*
X244442Y495604D01*
X244436Y495598D01*
X244431Y495601D01*
X243374Y495231D01*
X243370Y495225D01*
X243364Y495227D01*
X242416Y494631D01*
X242413Y494623D01*
X242408Y494624D01*
X241616Y493832D01*
X241615Y493824D01*
X241609Y493824D01*
X241013Y492876D01*
X241014Y492867D01*
X241009Y492866D01*
X240639Y491809D01*
X240641Y491801D01*
X240636Y491798D01*
X240511Y490686D01*
X240513Y490682D01*
X240511Y490680D01*
X240511Y484680D01*
X240513Y484677D01*
X240511Y484675D01*
X240636Y483562D01*
X240642Y483556D01*
X240639Y483551D01*
X241009Y482494D01*
X241016Y482490D01*
X241013Y482484D01*
X241609Y481536D01*
X241617Y481533D01*
X241616Y481528D01*
X242408Y480736D01*
X242416Y480735D01*
X242416Y480729D01*
X243364Y480133D01*
X243373Y480134D01*
X243374Y480129D01*
X244431Y479759D01*
X244439Y479761D01*
X244442Y479756D01*
X245555Y479631D01*
X245562Y479635D01*
X245566Y479631D01*
X246678Y479756D01*
G37*
G36*
X316023Y426983D02*
X316023Y426983D01*
X316026Y426981D01*
X316971Y427088D01*
X316977Y427093D01*
X316982Y427090D01*
X317880Y427404D01*
X317885Y427411D01*
X317890Y427409D01*
X318696Y427916D01*
X318699Y427923D01*
X318705Y427922D01*
X319378Y428595D01*
X319379Y428603D01*
X319384Y428604D01*
X319891Y429410D01*
X319890Y429418D01*
X319896Y429420D01*
X320210Y430318D01*
X320207Y430326D01*
X320212Y430329D01*
X320319Y431275D01*
X320315Y431282D01*
X320319Y431286D01*
X320212Y432231D01*
X320207Y432237D01*
X320210Y432242D01*
X319896Y433140D01*
X319889Y433145D01*
X319891Y433150D01*
X319384Y433956D01*
X319377Y433959D01*
X319378Y433965D01*
X318705Y434638D01*
X318697Y434639D01*
X318696Y434644D01*
X317890Y435151D01*
X317882Y435150D01*
X317880Y435156D01*
X316982Y435470D01*
X316974Y435467D01*
X316971Y435472D01*
X316026Y435579D01*
X316022Y435577D01*
X316020Y435579D01*
X313020Y435579D01*
X313017Y435577D01*
X313015Y435579D01*
X312069Y435472D01*
X312063Y435467D01*
X312058Y435470D01*
X311160Y435156D01*
X311155Y435149D01*
X311150Y435151D01*
X310344Y434644D01*
X310341Y434637D01*
X310335Y434638D01*
X309662Y433965D01*
X309661Y433957D01*
X309656Y433956D01*
X309149Y433150D01*
X309150Y433142D01*
X309144Y433140D01*
X308830Y432242D01*
X308833Y432234D01*
X308828Y432231D01*
X308721Y431286D01*
X308725Y431279D01*
X308724Y431279D01*
X308725Y431278D01*
X308721Y431275D01*
X308828Y430329D01*
X308833Y430323D01*
X308830Y430318D01*
X309144Y429420D01*
X309151Y429415D01*
X309149Y429410D01*
X309656Y428604D01*
X309663Y428601D01*
X309662Y428595D01*
X310335Y427922D01*
X310343Y427921D01*
X310344Y427916D01*
X311150Y427409D01*
X311158Y427410D01*
X311160Y427404D01*
X312058Y427090D01*
X312066Y427093D01*
X312069Y427088D01*
X313015Y426981D01*
X313018Y426983D01*
X313020Y426981D01*
X316020Y426981D01*
X316023Y426983D01*
G37*
G36*
X166163Y426983D02*
X166163Y426983D01*
X166166Y426981D01*
X167111Y427088D01*
X167117Y427093D01*
X167122Y427090D01*
X168020Y427404D01*
X168025Y427411D01*
X168030Y427409D01*
X168836Y427916D01*
X168839Y427923D01*
X168845Y427922D01*
X169518Y428595D01*
X169519Y428603D01*
X169524Y428604D01*
X170031Y429410D01*
X170030Y429418D01*
X170036Y429420D01*
X170350Y430318D01*
X170347Y430326D01*
X170352Y430329D01*
X170459Y431275D01*
X170455Y431282D01*
X170459Y431286D01*
X170352Y432231D01*
X170347Y432237D01*
X170350Y432242D01*
X170036Y433140D01*
X170029Y433145D01*
X170031Y433150D01*
X169524Y433956D01*
X169517Y433959D01*
X169518Y433965D01*
X168845Y434638D01*
X168837Y434639D01*
X168836Y434644D01*
X168030Y435151D01*
X168022Y435150D01*
X168020Y435156D01*
X167122Y435470D01*
X167114Y435467D01*
X167111Y435472D01*
X166166Y435579D01*
X166162Y435577D01*
X166160Y435579D01*
X163160Y435579D01*
X163157Y435577D01*
X163155Y435579D01*
X162209Y435472D01*
X162203Y435467D01*
X162198Y435470D01*
X161300Y435156D01*
X161295Y435149D01*
X161290Y435151D01*
X160484Y434644D01*
X160481Y434637D01*
X160475Y434638D01*
X159802Y433965D01*
X159801Y433957D01*
X159796Y433956D01*
X159289Y433150D01*
X159290Y433142D01*
X159284Y433140D01*
X158970Y432242D01*
X158973Y432234D01*
X158968Y432231D01*
X158861Y431286D01*
X158865Y431279D01*
X158864Y431279D01*
X158865Y431278D01*
X158861Y431275D01*
X158968Y430329D01*
X158973Y430323D01*
X158970Y430318D01*
X159284Y429420D01*
X159291Y429415D01*
X159289Y429410D01*
X159796Y428604D01*
X159803Y428601D01*
X159802Y428595D01*
X160475Y427922D01*
X160483Y427921D01*
X160484Y427916D01*
X161290Y427409D01*
X161298Y427410D01*
X161300Y427404D01*
X162198Y427090D01*
X162206Y427093D01*
X162209Y427088D01*
X163155Y426981D01*
X163158Y426983D01*
X163160Y426981D01*
X166160Y426981D01*
X166163Y426983D01*
G37*
G36*
X388023Y64803D02*
X388023Y64803D01*
X388026Y64801D01*
X388971Y64908D01*
X388977Y64913D01*
X388982Y64910D01*
X389880Y65224D01*
X389885Y65231D01*
X389890Y65229D01*
X390696Y65736D01*
X390699Y65743D01*
X390705Y65742D01*
X391378Y66415D01*
X391379Y66423D01*
X391384Y66424D01*
X391891Y67230D01*
X391890Y67238D01*
X391896Y67240D01*
X392210Y68138D01*
X392207Y68146D01*
X392212Y68149D01*
X392319Y69095D01*
X392315Y69102D01*
X392319Y69106D01*
X392212Y70051D01*
X392207Y70057D01*
X392210Y70062D01*
X391896Y70960D01*
X391889Y70965D01*
X391891Y70970D01*
X391384Y71776D01*
X391377Y71779D01*
X391378Y71785D01*
X390705Y72458D01*
X390697Y72459D01*
X390696Y72464D01*
X389890Y72971D01*
X389882Y72970D01*
X389880Y72976D01*
X388982Y73290D01*
X388974Y73287D01*
X388971Y73292D01*
X388026Y73399D01*
X388022Y73397D01*
X388020Y73399D01*
X385020Y73399D01*
X385017Y73397D01*
X385015Y73399D01*
X384069Y73292D01*
X384063Y73287D01*
X384058Y73290D01*
X383160Y72976D01*
X383155Y72969D01*
X383150Y72971D01*
X382344Y72464D01*
X382341Y72457D01*
X382335Y72458D01*
X381662Y71785D01*
X381661Y71777D01*
X381656Y71776D01*
X381149Y70970D01*
X381150Y70962D01*
X381144Y70960D01*
X380830Y70062D01*
X380833Y70054D01*
X380828Y70051D01*
X380721Y69106D01*
X380725Y69099D01*
X380724Y69099D01*
X380725Y69098D01*
X380721Y69095D01*
X380828Y68149D01*
X380833Y68143D01*
X380830Y68138D01*
X381144Y67240D01*
X381151Y67235D01*
X381149Y67230D01*
X381656Y66424D01*
X381663Y66421D01*
X381662Y66415D01*
X382335Y65742D01*
X382343Y65741D01*
X382344Y65736D01*
X383150Y65229D01*
X383158Y65230D01*
X383160Y65224D01*
X384058Y64910D01*
X384066Y64913D01*
X384069Y64908D01*
X385015Y64801D01*
X385018Y64803D01*
X385020Y64801D01*
X388020Y64801D01*
X388023Y64803D01*
G37*
G36*
X238163Y64803D02*
X238163Y64803D01*
X238166Y64801D01*
X239111Y64908D01*
X239117Y64913D01*
X239122Y64910D01*
X240020Y65224D01*
X240025Y65231D01*
X240030Y65229D01*
X240836Y65736D01*
X240839Y65743D01*
X240845Y65742D01*
X241518Y66415D01*
X241519Y66423D01*
X241524Y66424D01*
X242031Y67230D01*
X242030Y67238D01*
X242036Y67240D01*
X242350Y68138D01*
X242347Y68146D01*
X242352Y68149D01*
X242459Y69095D01*
X242455Y69102D01*
X242459Y69106D01*
X242352Y70051D01*
X242347Y70057D01*
X242350Y70062D01*
X242036Y70960D01*
X242029Y70965D01*
X242031Y70970D01*
X241524Y71776D01*
X241517Y71779D01*
X241518Y71785D01*
X240845Y72458D01*
X240837Y72459D01*
X240836Y72464D01*
X240030Y72971D01*
X240022Y72970D01*
X240020Y72976D01*
X239122Y73290D01*
X239114Y73287D01*
X239111Y73292D01*
X238166Y73399D01*
X238162Y73397D01*
X238160Y73399D01*
X235160Y73399D01*
X235157Y73397D01*
X235155Y73399D01*
X234209Y73292D01*
X234203Y73287D01*
X234198Y73290D01*
X233300Y72976D01*
X233295Y72969D01*
X233290Y72971D01*
X232484Y72464D01*
X232481Y72457D01*
X232475Y72458D01*
X231802Y71785D01*
X231801Y71777D01*
X231796Y71776D01*
X231289Y70970D01*
X231290Y70962D01*
X231284Y70960D01*
X230970Y70062D01*
X230973Y70054D01*
X230968Y70051D01*
X230861Y69106D01*
X230865Y69099D01*
X230864Y69099D01*
X230865Y69098D01*
X230861Y69095D01*
X230968Y68149D01*
X230973Y68143D01*
X230970Y68138D01*
X231284Y67240D01*
X231291Y67235D01*
X231289Y67230D01*
X231796Y66424D01*
X231803Y66421D01*
X231802Y66415D01*
X232475Y65742D01*
X232483Y65741D01*
X232484Y65736D01*
X233290Y65229D01*
X233298Y65230D01*
X233300Y65224D01*
X234198Y64910D01*
X234206Y64913D01*
X234209Y64908D01*
X235155Y64801D01*
X235158Y64803D01*
X235160Y64801D01*
X238160Y64801D01*
X238163Y64803D01*
G37*
G36*
X432231Y380828D02*
X432231Y380828D01*
X432237Y380833D01*
X432242Y380830D01*
X433140Y381144D01*
X433145Y381151D01*
X433150Y381149D01*
X433956Y381656D01*
X433959Y381663D01*
X433965Y381662D01*
X434638Y382335D01*
X434639Y382343D01*
X434644Y382344D01*
X435151Y383150D01*
X435150Y383158D01*
X435156Y383160D01*
X435470Y384058D01*
X435467Y384066D01*
X435472Y384069D01*
X435579Y385015D01*
X435577Y385018D01*
X435579Y385020D01*
X435579Y388020D01*
X435577Y388023D01*
X435579Y388026D01*
X435472Y388971D01*
X435467Y388977D01*
X435470Y388982D01*
X435156Y389880D01*
X435149Y389885D01*
X435151Y389890D01*
X434644Y390696D01*
X434637Y390699D01*
X434638Y390705D01*
X433965Y391378D01*
X433957Y391379D01*
X433956Y391384D01*
X433150Y391891D01*
X433142Y391890D01*
X433140Y391896D01*
X432242Y392210D01*
X432234Y392207D01*
X432231Y392212D01*
X431286Y392319D01*
X431278Y392315D01*
X431275Y392319D01*
X430329Y392212D01*
X430323Y392207D01*
X430318Y392210D01*
X429420Y391896D01*
X429415Y391889D01*
X429410Y391891D01*
X428604Y391384D01*
X428601Y391377D01*
X428595Y391378D01*
X427922Y390705D01*
X427921Y390697D01*
X427916Y390696D01*
X427409Y389890D01*
X427410Y389882D01*
X427404Y389880D01*
X427090Y388982D01*
X427093Y388974D01*
X427088Y388971D01*
X426981Y388026D01*
X426983Y388022D01*
X426981Y388020D01*
X426981Y385020D01*
X426983Y385017D01*
X426981Y385015D01*
X427088Y384069D01*
X427093Y384063D01*
X427090Y384058D01*
X427404Y383160D01*
X427411Y383155D01*
X427409Y383150D01*
X427916Y382344D01*
X427923Y382341D01*
X427922Y382335D01*
X428595Y381662D01*
X428603Y381661D01*
X428604Y381656D01*
X429410Y381149D01*
X429418Y381150D01*
X429420Y381144D01*
X430318Y380830D01*
X430326Y380833D01*
X430329Y380828D01*
X431275Y380721D01*
X431282Y380725D01*
X431286Y380721D01*
X432231Y380828D01*
G37*
G36*
X432231Y180168D02*
X432231Y180168D01*
X432237Y180173D01*
X432242Y180170D01*
X433140Y180484D01*
X433145Y180491D01*
X433150Y180489D01*
X433956Y180996D01*
X433959Y181003D01*
X433965Y181002D01*
X434638Y181675D01*
X434639Y181683D01*
X434644Y181684D01*
X435151Y182490D01*
X435150Y182498D01*
X435156Y182500D01*
X435470Y183398D01*
X435467Y183406D01*
X435472Y183409D01*
X435579Y184355D01*
X435577Y184358D01*
X435579Y184360D01*
X435579Y187360D01*
X435577Y187363D01*
X435579Y187366D01*
X435472Y188311D01*
X435467Y188317D01*
X435470Y188322D01*
X435156Y189220D01*
X435149Y189225D01*
X435151Y189230D01*
X434644Y190036D01*
X434637Y190039D01*
X434638Y190045D01*
X433965Y190718D01*
X433957Y190719D01*
X433956Y190724D01*
X433150Y191231D01*
X433142Y191230D01*
X433140Y191236D01*
X432242Y191550D01*
X432234Y191547D01*
X432231Y191552D01*
X431286Y191659D01*
X431278Y191655D01*
X431275Y191659D01*
X430329Y191552D01*
X430323Y191547D01*
X430318Y191550D01*
X429420Y191236D01*
X429415Y191229D01*
X429410Y191231D01*
X428604Y190724D01*
X428601Y190717D01*
X428595Y190718D01*
X427922Y190045D01*
X427921Y190037D01*
X427916Y190036D01*
X427409Y189230D01*
X427410Y189222D01*
X427404Y189220D01*
X427090Y188322D01*
X427093Y188314D01*
X427088Y188311D01*
X426981Y187366D01*
X426983Y187362D01*
X426981Y187360D01*
X426981Y184360D01*
X426983Y184357D01*
X426981Y184355D01*
X427088Y183409D01*
X427093Y183403D01*
X427090Y183398D01*
X427404Y182500D01*
X427411Y182495D01*
X427409Y182490D01*
X427916Y181684D01*
X427923Y181681D01*
X427922Y181675D01*
X428595Y181002D01*
X428603Y181001D01*
X428604Y180996D01*
X429410Y180489D01*
X429418Y180490D01*
X429420Y180484D01*
X430318Y180170D01*
X430326Y180173D01*
X430329Y180168D01*
X431275Y180061D01*
X431282Y180065D01*
X431286Y180061D01*
X432231Y180168D01*
G37*
D10*
X30000Y30000D03*
X30000Y470000D03*
X470000Y470000D03*
X470000Y30000D03*
D11*
X70000Y30000D03*
X70000Y470000D03*
X430000Y470000D03*
X430000Y30000D03*
D12*
X263970Y207042D03*
X270470Y207042D03*
X276970Y207042D03*
X283470Y207042D03*
X289970Y207042D03*
X296470Y207042D03*
X302970Y207042D03*
X309470Y207042D03*
X315970Y207042D03*
X322470Y207042D03*
X328970Y207042D03*
X335470Y207042D03*
X335470Y265398D03*
X328970Y265398D03*
X322470Y265398D03*
X315970Y265398D03*
X309470Y265398D03*
X302970Y265398D03*
X296470Y265398D03*
X289970Y265398D03*
X283470Y265398D03*
X276970Y265398D03*
X270470Y265398D03*
X263970Y265398D03*
D13*
X261620Y299720D03*
X241300Y299720D03*
X266700Y327660D03*
X246380Y327660D03*
D14*
X241910Y267970D03*
X222910Y267970D03*
D15*
X173160Y74700D03*
X178160Y74700D03*
X183160Y74700D03*
X188160Y74700D03*
X193160Y74700D03*
X198160Y74700D03*
X203160Y74700D03*
X208160Y74700D03*
X213160Y74700D03*
X218160Y74700D03*
X223160Y74700D03*
X228160Y74700D03*
D16*
X228660Y62600D03*
X224660Y55600D03*
X216660Y55600D03*
X212660Y62600D03*
X208660Y55600D03*
X204660Y62600D03*
X196660Y62600D03*
X192660Y55600D03*
X188660Y62600D03*
X184660Y55600D03*
X176660Y55600D03*
X172660Y62600D03*
D17*
X236660Y69100D03*
X164660Y69100D03*
D15*
X323020Y74700D03*
X328020Y74700D03*
X333020Y74700D03*
X338020Y74700D03*
X343020Y74700D03*
X348020Y74700D03*
X353020Y74700D03*
X358020Y74700D03*
X363020Y74700D03*
X368020Y74700D03*
X373020Y74700D03*
X378020Y74700D03*
D16*
X378520Y62600D03*
X374520Y55600D03*
X366520Y55600D03*
X362520Y62600D03*
X358520Y55600D03*
X354520Y62600D03*
X346520Y62600D03*
X342520Y55600D03*
X338520Y62600D03*
X334520Y55600D03*
X326520Y55600D03*
X322520Y62600D03*
D17*
X386520Y69100D03*
X314520Y69100D03*
D18*
X425680Y122360D03*
X425680Y127360D03*
X425680Y132360D03*
X425680Y137360D03*
X425680Y142360D03*
X425680Y147360D03*
X425680Y152360D03*
X425680Y157360D03*
X425680Y162360D03*
X425680Y167360D03*
X425680Y172360D03*
X425680Y177360D03*
D16*
X437780Y177860D03*
X444780Y173860D03*
X444780Y165860D03*
X437780Y161860D03*
X444780Y157860D03*
X437780Y153860D03*
X437780Y145860D03*
X444780Y141860D03*
X437780Y137860D03*
X444780Y133860D03*
X444780Y125860D03*
X437780Y121860D03*
D17*
X431280Y185860D03*
X431280Y113860D03*
D18*
X425680Y323020D03*
X425680Y328020D03*
X425680Y333020D03*
X425680Y338020D03*
X425680Y343020D03*
X425680Y348020D03*
X425680Y353020D03*
X425680Y358020D03*
X425680Y363020D03*
X425680Y368020D03*
X425680Y373020D03*
X425680Y378020D03*
D16*
X437780Y378520D03*
X444780Y374520D03*
X444780Y366520D03*
X437780Y362520D03*
X444780Y358520D03*
X437780Y354520D03*
X437780Y346520D03*
X444780Y342520D03*
X437780Y338520D03*
X444780Y334520D03*
X444780Y326520D03*
X437780Y322520D03*
D17*
X431280Y386520D03*
X431280Y314520D03*
D15*
X378020Y425680D03*
X373020Y425680D03*
X368020Y425680D03*
X363020Y425680D03*
X358020Y425680D03*
X353020Y425680D03*
X348020Y425680D03*
X343020Y425680D03*
X338020Y425680D03*
X333020Y425680D03*
X328020Y425680D03*
X323020Y425680D03*
D16*
X322520Y437780D03*
X326520Y444780D03*
X334520Y444780D03*
X338520Y437780D03*
X342520Y444780D03*
X346520Y437780D03*
X354520Y437780D03*
X358520Y444780D03*
X362520Y437780D03*
X366520Y444780D03*
X374520Y444780D03*
X378520Y437780D03*
D17*
X314520Y431280D03*
X386520Y431280D03*
D15*
X228160Y425680D03*
X223160Y425680D03*
X218160Y425680D03*
X213160Y425680D03*
X208160Y425680D03*
X203160Y425680D03*
X198160Y425680D03*
X193160Y425680D03*
X188160Y425680D03*
X183160Y425680D03*
X178160Y425680D03*
X173160Y425680D03*
D16*
X172660Y437780D03*
X176660Y444780D03*
X184660Y444780D03*
X188660Y437780D03*
X192660Y444780D03*
X196660Y437780D03*
X204660Y437780D03*
X208660Y444780D03*
X212660Y437780D03*
X216660Y444780D03*
X224660Y444780D03*
X228660Y437780D03*
D17*
X164660Y431280D03*
X236660Y431280D03*
D19*
X85250Y427800D03*
X34750Y427800D03*
X85250Y402400D03*
X34750Y402400D03*
X85250Y377000D03*
X34750Y377000D03*
X85250Y351600D03*
X34750Y351600D03*
X85250Y326200D03*
X34750Y326200D03*
X85250Y300800D03*
X34750Y300800D03*
X85250Y275400D03*
X34750Y275400D03*
X85250Y250000D03*
X34750Y250000D03*
X85250Y224600D03*
X34750Y224600D03*
X85250Y199200D03*
X34750Y199200D03*
X85250Y173800D03*
X34750Y173800D03*
X85250Y148400D03*
X34750Y148400D03*
X85250Y123000D03*
X34750Y123000D03*
X85250Y97600D03*
X34750Y97600D03*
X85250Y72200D03*
X34750Y72200D03*
M02*
