G04 EAGLE Gerber RS-274X export*
G75*
%MOMM*%
%FSLAX34Y34*%
%LPD*%
%INSilkscreen Bottom*%
%IPPOS*%
%AMOC8*
5,1,8,0,0,1.08239X$1,22.5*%
G01*
%ADD10C,0.203200*%
%ADD11C,0.200000*%


D10*
X157480Y437515D02*
X165608Y440224D01*
X157480Y442934D01*
X159512Y442256D02*
X159512Y438192D01*
D11*
X84250Y447000D02*
X84252Y447063D01*
X84258Y447125D01*
X84268Y447187D01*
X84281Y447249D01*
X84299Y447309D01*
X84320Y447368D01*
X84345Y447426D01*
X84374Y447482D01*
X84406Y447536D01*
X84441Y447588D01*
X84479Y447637D01*
X84521Y447685D01*
X84565Y447729D01*
X84613Y447771D01*
X84662Y447809D01*
X84714Y447844D01*
X84768Y447876D01*
X84824Y447905D01*
X84882Y447930D01*
X84941Y447951D01*
X85001Y447969D01*
X85063Y447982D01*
X85125Y447992D01*
X85187Y447998D01*
X85250Y448000D01*
X85313Y447998D01*
X85375Y447992D01*
X85437Y447982D01*
X85499Y447969D01*
X85559Y447951D01*
X85618Y447930D01*
X85676Y447905D01*
X85732Y447876D01*
X85786Y447844D01*
X85838Y447809D01*
X85887Y447771D01*
X85935Y447729D01*
X85979Y447685D01*
X86021Y447637D01*
X86059Y447588D01*
X86094Y447536D01*
X86126Y447482D01*
X86155Y447426D01*
X86180Y447368D01*
X86201Y447309D01*
X86219Y447249D01*
X86232Y447187D01*
X86242Y447125D01*
X86248Y447063D01*
X86250Y447000D01*
X86248Y446937D01*
X86242Y446875D01*
X86232Y446813D01*
X86219Y446751D01*
X86201Y446691D01*
X86180Y446632D01*
X86155Y446574D01*
X86126Y446518D01*
X86094Y446464D01*
X86059Y446412D01*
X86021Y446363D01*
X85979Y446315D01*
X85935Y446271D01*
X85887Y446229D01*
X85838Y446191D01*
X85786Y446156D01*
X85732Y446124D01*
X85676Y446095D01*
X85618Y446070D01*
X85559Y446049D01*
X85499Y446031D01*
X85437Y446018D01*
X85375Y446008D01*
X85313Y446002D01*
X85250Y446000D01*
X85187Y446002D01*
X85125Y446008D01*
X85063Y446018D01*
X85001Y446031D01*
X84941Y446049D01*
X84882Y446070D01*
X84824Y446095D01*
X84768Y446124D01*
X84714Y446156D01*
X84662Y446191D01*
X84613Y446229D01*
X84565Y446271D01*
X84521Y446315D01*
X84479Y446363D01*
X84441Y446412D01*
X84406Y446464D01*
X84374Y446518D01*
X84345Y446574D01*
X84320Y446632D01*
X84299Y446691D01*
X84281Y446751D01*
X84268Y446813D01*
X84258Y446875D01*
X84252Y446937D01*
X84250Y447000D01*
X85400Y440500D02*
X34600Y440500D01*
X85400Y440500D02*
X85400Y437650D01*
X34600Y437650D02*
X34600Y440500D01*
X34600Y59500D02*
X85400Y59500D01*
X34600Y59500D02*
X34600Y62350D01*
X85400Y62350D02*
X85400Y59500D01*
M02*
