G04 EAGLE Gerber RS-274X export*
G75*
%MOMM*%
%FSLAX34Y34*%
%LPD*%
%INSolderpaste Top*%
%IPPOS*%
%AMOC8*
5,1,8,0,0,1.08239X$1,22.5*%
G01*
%ADD10R,0.304800X0.990600*%
%ADD11R,1.200000X1.300000*%
%ADD12R,1.300000X1.500000*%
%ADD13R,0.300000X0.900000*%
%ADD14R,0.900000X0.300000*%
%ADD15R,3.600000X1.600000*%


D10*
X263970Y207042D03*
X270470Y207042D03*
X276970Y207042D03*
X283470Y207042D03*
X289970Y207042D03*
X296470Y207042D03*
X302970Y207042D03*
X309470Y207042D03*
X315970Y207042D03*
X322470Y207042D03*
X328970Y207042D03*
X335470Y207042D03*
X335470Y265398D03*
X328970Y265398D03*
X322470Y265398D03*
X315970Y265398D03*
X309470Y265398D03*
X302970Y265398D03*
X296470Y265398D03*
X289970Y265398D03*
X283470Y265398D03*
X276970Y265398D03*
X270470Y265398D03*
X263970Y265398D03*
D11*
X261620Y299720D03*
X241300Y299720D03*
X266700Y327660D03*
X246380Y327660D03*
D12*
X241910Y267970D03*
X222910Y267970D03*
D13*
X173160Y74700D03*
X178160Y74700D03*
X183160Y74700D03*
X188160Y74700D03*
X193160Y74700D03*
X198160Y74700D03*
X203160Y74700D03*
X208160Y74700D03*
X213160Y74700D03*
X218160Y74700D03*
X223160Y74700D03*
X228160Y74700D03*
X323020Y74700D03*
X328020Y74700D03*
X333020Y74700D03*
X338020Y74700D03*
X343020Y74700D03*
X348020Y74700D03*
X353020Y74700D03*
X358020Y74700D03*
X363020Y74700D03*
X368020Y74700D03*
X373020Y74700D03*
X378020Y74700D03*
D14*
X425680Y122360D03*
X425680Y127360D03*
X425680Y132360D03*
X425680Y137360D03*
X425680Y142360D03*
X425680Y147360D03*
X425680Y152360D03*
X425680Y157360D03*
X425680Y162360D03*
X425680Y167360D03*
X425680Y172360D03*
X425680Y177360D03*
X425680Y323020D03*
X425680Y328020D03*
X425680Y333020D03*
X425680Y338020D03*
X425680Y343020D03*
X425680Y348020D03*
X425680Y353020D03*
X425680Y358020D03*
X425680Y363020D03*
X425680Y368020D03*
X425680Y373020D03*
X425680Y378020D03*
D13*
X378020Y425680D03*
X373020Y425680D03*
X368020Y425680D03*
X363020Y425680D03*
X358020Y425680D03*
X353020Y425680D03*
X348020Y425680D03*
X343020Y425680D03*
X338020Y425680D03*
X333020Y425680D03*
X328020Y425680D03*
X323020Y425680D03*
X228160Y425680D03*
X223160Y425680D03*
X218160Y425680D03*
X213160Y425680D03*
X208160Y425680D03*
X203160Y425680D03*
X198160Y425680D03*
X193160Y425680D03*
X188160Y425680D03*
X183160Y425680D03*
X178160Y425680D03*
X173160Y425680D03*
D15*
X85250Y427800D03*
X34750Y427800D03*
X85250Y402400D03*
X34750Y402400D03*
X85250Y377000D03*
X34750Y377000D03*
X85250Y351600D03*
X34750Y351600D03*
X85250Y326200D03*
X34750Y326200D03*
X85250Y300800D03*
X34750Y300800D03*
X85250Y275400D03*
X34750Y275400D03*
X85250Y250000D03*
X34750Y250000D03*
X85250Y224600D03*
X34750Y224600D03*
X34750Y199200D03*
X85250Y173800D03*
X34750Y173800D03*
X85250Y148400D03*
X34750Y148400D03*
X85250Y123000D03*
X34750Y123000D03*
X85250Y97600D03*
X34750Y97600D03*
X85250Y72200D03*
X34750Y72200D03*
X85250Y199200D03*
M02*
