M48
;GenerationSoftware,Autodesk,EAGLE,9.6.2*%
;CreationDate,2022-12-08T22:35:22Z*%
FMAT,2
ICI,OFF
METRIC,TZ,000.000
T7C0.300
T6C0.350
T5C0.400
T4C0.500
T3C0.650
T2C2.000
T1C3.000
%
G90
M71
T1
X3000Y47000
X3000Y3000
X47000Y47000
X47000Y3000
T2
X43000Y3000
X7000Y3000
X7000Y47000
X43000Y47000
T3
X38652Y6910
X31452Y6910
X43128Y18586
X43128Y11386
X43128Y38652
X43128Y31452
X31452Y43128
X38652Y43128
X16466Y43128
X23666Y43128
X23666Y6910
X16466Y6910
T4
X24556Y1270
X30922Y5670
X39182Y5670
X30562Y1270
X39542Y1270
X15936Y5670
X24196Y5670
X15576Y1270
X44368Y10856
X44368Y19116
X48768Y10496
X48768Y19476
X44368Y30922
X44368Y39182
X48768Y30562
X48768Y39542
X15576Y48768
X39182Y44368
X30922Y44368
X39542Y48768
X30562Y48768
X24196Y44368
X15936Y44368
X24556Y48768
T5
X36252Y6260
X35852Y5560
X35452Y6260
X34652Y6260
X34252Y5560
X33852Y6260
X33452Y5560
X32652Y5560
X32252Y6260
X43778Y17786
X44478Y16586
X43778Y16186
X44478Y15786
X43778Y15386
X43778Y14586
X44478Y14186
X43778Y13786
X44478Y13386
X44478Y12586
X43778Y12186
X44478Y17386
X22866Y6260
X22466Y5560
X21666Y5560
X43778Y37852
X44478Y37452
X44478Y36652
X43778Y36252
X44478Y35852
X43778Y35452
X43778Y34652
X44478Y34252
X43778Y33852
X44478Y33452
X44478Y32652
X43778Y32252
X21266Y6260
X20866Y5560
X20466Y6260
X19666Y6260
X32252Y43778
X32652Y44478
X33452Y44478
X19266Y5560
X34252Y44478
X34652Y43778
X35452Y43778
X35852Y44478
X36252Y43778
X36652Y44478
X37452Y44478
X37852Y43778
X18866Y6260
X18466Y5560
X17666Y5560
X17266Y6260
X17266Y43778
X33852Y43778
X18466Y44478
X18866Y43778
X19266Y44478
X19666Y43778
X20466Y43778
X20866Y44478
X21266Y43778
X21666Y44478
X22466Y44478
X22866Y43778
X37852Y6260
X37452Y5560
X36652Y5560
X17666Y44478
T6
X27178Y35560
X25146Y34290
X24638Y37338
X20066Y37338
X29718Y37338
X34290Y37338
X27432Y39724
X26162Y34544
X26793Y27940
X11113Y23730
X6016Y23476
X1124Y12300
X1016Y7366
X1016Y9652
X25654Y10668
X23217Y11835
X36322Y11430
X32802Y12156
X30988Y11938
X32766Y14224
X38354Y17272
X38989Y11399
X38404Y15798
X38717Y33673
X35433Y25654
X38608Y28956
X21844Y12954
X19608Y8840
X20828Y8890
X34290Y8890
X36068Y8890
X40640Y15494
X40640Y14224
X40640Y35306
X40640Y34036
X20828Y40894
X19304Y40894
X35814Y40894
X34036Y40894
X13208Y10014
X11938Y9906
X17780Y38962
X18161Y36449
X37592Y38608
X32766Y38962
X23422Y38962
X28194Y36322
X10922Y22460
X45974Y35052
X20574Y12192
X20828Y10414
X35052Y9906
X24638Y10160
X32106Y9906
X33528Y9906
X30480Y15494
X39624Y17272
X39624Y13462
X30988Y17018
X34036Y16002
X28956Y14478
X28194Y15748
X27432Y18034
X34036Y17628
X36018Y19608
X37084Y18288
X20321Y39978
X34036Y39978
X34494Y21132
X34544Y27178
X25654Y19558
X25654Y24130
X39624Y33528
X39693Y34729
X39624Y31242
X38793Y36899
X37846Y32004
X37846Y29464
X37592Y10160
X37467Y39470
X35306Y39724
X31242Y39724
X22677Y39807
X16925Y39878
X27432Y42418
X27432Y46228
X42672Y42418
X45212Y44704
X34036Y14986
X44704Y48768
X48768Y44704
X46990Y25654
X43434Y25908
X43180Y7874
X47498Y7620
X44704Y1270
X27686Y1270
X27686Y6604
X12192Y1270
X12192Y5334
X5842Y5334
X5842Y762
X1016Y5842
X5588Y48768
X17272Y36068
X17272Y33020
X17272Y30480
X17272Y25908
X16002Y24130
X12700Y23368
X15494Y36068
X15494Y31750
X20574Y13716
X17526Y11684
X24638Y14986
X26162Y16764
X24638Y12192
X22352Y10414
X27940Y11176
X936Y40240
X936Y43034
X936Y37700
X4238Y44812
X35814Y35560
X30988Y35560
X29464Y28702
X35560Y30734
X20828Y35560
X19050Y24130
X16002Y19558
X16002Y14478
X21844Y16256
X22860Y24638
X19304Y32512
X12192Y43688
X12446Y39878
X12446Y35814
X12446Y30480
X12446Y19304
X13716Y46482
X15494Y26924
X39370Y23876
X42164Y28448
X41910Y22606
X12954Y12700
X12700Y8128
X1016Y31750
X762Y36830
X1016Y28956
X1016Y21082
X1016Y16256
X8540Y42780
X3460Y42780
X8540Y40240
X3460Y40240
X8540Y37700
X3460Y37700
X8540Y35160
X3460Y35160
X8540Y32620
X3460Y32620
X8540Y30080
X3460Y30080
X8540Y27540
X3460Y27540
X8540Y25000
X3460Y25000
X8540Y22460
X3460Y22460
X8540Y19920
X3460Y19920
X8540Y17380
X3460Y17380
X8540Y14840
X3460Y14840
X8540Y12300
X3460Y12300
X8540Y9760
X3460Y9760
X8540Y7220
X3460Y7220
X7270Y42780
X4730Y42780
X7270Y40240
X4730Y40240
X7270Y37700
X4730Y37700
X7270Y35160
X4730Y35160
X7270Y32620
X4730Y32620
X7270Y30080
X4730Y30080
X7270Y27540
X4730Y27540
X7270Y25000
X4730Y25000
X7270Y22460
X4730Y22460
X7270Y19920
X4730Y19920
X7270Y17380
X4730Y17380
X7270Y14840
X4730Y14840
X7270Y12300
X4730Y12300
X7270Y9760
X4730Y9760
X7270Y7220
X4730Y7220
T7
X26620Y13258
M30